<?xml version="1.0" encoding="UTF-8" standalone="no"?>
<svg xmlns:dc="http://purl.org/dc/elements/1.1/" xmlns:cc="http://creativecommons.org/ns#" xmlns:rdf="http://www.w3.org/1999/02/22-rdf-syntax-ns#" xmlns:svg="http://www.w3.org/2000/svg" xmlns="http://www.w3.org/2000/svg" xmlns:xlink="http://www.w3.org/1999/xlink" xmlns:sodipodi="http://sodipodi.sourceforge.net/DTD/sodipodi-0.dtd" xmlns:inkscape="http://www.inkscape.org/namespaces/inkscape" version="1.1" id="Wikipedia_logo" width="1500" height="1499.9996" viewBox="0 0 1500 1499.9996" inkscape:version="0.47pre4 r22446" sodipodi:docname="Wikipedia_svg_logo.svg">
  <metadata id="metadata55">
    <rdf:RDF>
      <cc:Work rdf:about="">
        <dc:format>image/svg+xml</dc:format>
        <dc:type rdf:resource="http://purl.org/dc/dcmitype/StillImage"/>
      </cc:Work>
    </rdf:RDF>
  </metadata>
  <defs id="defs53">
    <inkscape:perspective sodipodi:type="inkscape:persp3d" inkscape:vp_x="0 : 100 : 1" inkscape:vp_y="0 : 1000 : 0" inkscape:vp_z="200 : 100 : 1" inkscape:persp3d-origin="100 : 66.666667 : 1" id="perspective57"/>
    <inkscape:perspective sodipodi:type="inkscape:persp3d" inkscape:vp_x="0 : 78 : 1" inkscape:vp_y="0 : 1000 : 0" inkscape:vp_z="156 : 78 : 1" inkscape:persp3d-origin="78 : 52 : 1" id="perspective3010"/>
    <linearGradient id="linearGradient15985">
      <stop style="stop-color:#cccccc;stop-opacity:1;" offset="0" id="stop15987"/>
      <stop style="stop-color:#cccccc;stop-opacity:0;" offset="1" id="stop15989"/>
    </linearGradient>
    <linearGradient id="linearGradient15977">
      <stop style="stop-color:#9a9a9a;stop-opacity:1;" offset="0" id="stop15979"/>
      <stop style="stop-color:#9a9a9a;stop-opacity:0;" offset="1" id="stop15981"/>
    </linearGradient>
    <linearGradient id="linearGradient3177">
      <stop id="stop3179" style="stop-color:#ffffff;stop-opacity:1" offset="0"/>
      <stop id="stop3181" style="stop-color:#ffffff;stop-opacity:0" offset="1"/>
    </linearGradient>
    <radialGradient cx="99.627365" cy="350.03537" r="366.08609" fx="99.627365" fy="350.03537" id="radialGradient3233" xlink:href="#linearGradient3177" gradientUnits="userSpaceOnUse" gradientTransform="matrix(0.122511,0.106945,-1.0400818,1.1914684,285.44243,-88.288815)"/>
    <linearGradient id="linearGradient3185">
      <stop id="stop3187" style="stop-color:#ff901f;stop-opacity:1" offset="0"/>
      <stop id="stop3189" style="stop-color:#ffb61f;stop-opacity:1" offset="1"/>
    </linearGradient>
    <radialGradient cx="642.98547" cy="825.81067" r="435.31973" fx="642.98547" fy="825.81067" id="radialGradient3231" xlink:href="#linearGradient3185" gradientUnits="userSpaceOnUse" gradientTransform="matrix(0.1254023,0,0,0.1195144,-84.803684,297.87181)"/>
    <filter color-interpolation-filters="sRGB" id="filter3203">
      <feGaussianBlur inkscape:collect="always" stdDeviation="4.2510011" id="feGaussianBlur3205"/>
    </filter>
    <linearGradient inkscape:collect="always" xlink:href="#linearGradient15977" id="linearGradient15983" x1="-58.246655" y1="-180.02682" x2="-58.246655" y2="-278.79306" gradientUnits="userSpaceOnUse" gradientTransform="translate(487.37458,870.47968)"/>
    <linearGradient inkscape:collect="always" xlink:href="#linearGradient15985" id="linearGradient15991" x1="-63.205357" y1="-215.25386" x2="-63.205357" y2="-111.51862" gradientUnits="userSpaceOnUse" gradientTransform="translate(487.37458,870.47968)"/>
    <inkscape:perspective sodipodi:type="inkscape:persp3d" inkscape:vp_x="0 : 0.5 : 1" inkscape:vp_y="0 : 1000 : 0" inkscape:vp_z="1 : 0.5 : 1" inkscape:persp3d-origin="0.5 : 0.33333333 : 1" id="perspective2882"/>
    <inkscape:perspective id="perspective11" inkscape:persp3d-origin="64 : 42.666667 : 1" inkscape:vp_z="128 : 64 : 1" inkscape:vp_y="0 : 1000 : 0" inkscape:vp_x="0 : 64 : 1" sodipodi:type="inkscape:persp3d"/>
    <radialGradient inkscape:collect="always" xlink:href="#path8102_1_" id="radialGradient3033" gradientUnits="userSpaceOnUse" gradientTransform="matrix(-5.985557e-7,2.1396,2.1792,0,-509.2502,-338.2156)" cx="191.78419" cy="258.793" r="58.789299"/>
    <radialGradient inkscape:collect="always" xlink:href="#path33245_1_" id="radialGradient3035" gradientUnits="userSpaceOnUse" gradientTransform="matrix(0,1.4984,1.3097,0,-325.3553,-394.2997)" cx="312.71091" cy="279.83789" r="71.077904"/>
    <radialGradient inkscape:collect="always" xlink:href="#path8102_1_" id="radialGradient3067" gradientUnits="userSpaceOnUse" gradientTransform="matrix(-5.985557e-7,2.1396,2.1792,0,-509.2502,-338.2156)" cx="191.78419" cy="258.793" r="58.789299"/>
    <radialGradient inkscape:collect="always" xlink:href="#path33245_1_" id="radialGradient3069" gradientUnits="userSpaceOnUse" gradientTransform="matrix(0,1.4984,1.3097,0,-325.3553,-394.2997)" cx="312.71091" cy="279.83789" r="71.077904"/>
  </defs>
  <sodipodi:namedview pagecolor="#ffffff" bordercolor="#666666" borderopacity="1" objecttolerance="10" gridtolerance="10" guidetolerance="10" inkscape:pageopacity="0" inkscape:pageshadow="2" inkscape:window-width="1366" inkscape:window-height="694" id="namedview51" showgrid="false" inkscape:zoom="0.295" inkscape:cx="714.39265" inkscape:cy="825.1295" inkscape:window-x="0" inkscape:window-y="25" inkscape:window-maximized="1" inkscape:current-layer="Wikipedia_logo"/>
  <title id="title3">Wikipedia logo</title>
  <desc id="desc5">For more information see: http://commons.wikimedia.org/wiki/File:Wikipedia_svg_logo.svg</desc>
  <radialGradient id="path8102_1_" cx="191.78419" cy="258.793" r="58.789299" gradientTransform="matrix(-5.985557e-7,2.1396,2.1792,0,-509.2502,-338.2156)" gradientUnits="userSpaceOnUse">
    <stop offset="0" stop-color="#fff" id="stop9"/>
    <stop offset="0.2352" stop-color="#fff" id="stop11"/>
    <stop offset="0.3321" stop-color="#EAEAEA" id="stop13"/>
    <stop offset="0.6773" stop-color="#C9C9C9" id="stop15"/>
    <stop offset="0.7017" stop-color="#C9C9C9" id="stop17"/>
    <stop offset="0.8872" stop-color="#919191" id="stop19"/>
    <stop offset="1" stop-color="#636363" id="stop21"/>
  </radialGradient>
  <radialGradient id="path33245_1_" cx="312.71091" cy="279.83789" r="71.077904" gradientTransform="matrix(0,1.4984,1.3097,0,-325.3553,-394.2997)" gradientUnits="userSpaceOnUse">
    <stop offset="0" stop-color="#c8c8c8" id="stop45"/>
    <stop offset="1" stop-color="#5a5a5a" id="stop47"/>
  </radialGradient>
  <style id="style3" type="text/css">
#letterw {fill:#000}
</style>
  <g id="g3037" transform="translate(-205.57292,738.13539)">
    <g transform="matrix(9.868422,0,0,9.868422,-1787.8483,-7669.3427)" id="layer1" inkscape:label="Layer 1">
      <path transform="matrix(0.3983746,0,0,0.4298251,153.36565,599.89056)" d="m 488.57143,415.21933 c 0,89.94352 -78.66997,162.85715 -175.71428,162.85715 -97.04432,0 -175.71428,-72.91363 -175.71428,-162.85715 0,-89.94352 78.66996,-162.85715 175.71428,-162.85715 97.04431,0 175.71428,72.91363 175.71428,162.85715 z" sodipodi:ry="162.85715" sodipodi:rx="175.71428" sodipodi:cy="415.21933" sodipodi:cx="312.85715" id="path2160" style="fill:#e6e6e6;fill-opacity:1;stroke:#ffffff;stroke-width:28.99888992;stroke-miterlimit:6;stroke-opacity:1;stroke-dasharray:none;stroke-dashoffset:0" sodipodi:type="arc"/>
      <path transform="matrix(1.0594594,0,0,1.0384106,-11.837834,84.995429)" d="m 326.42859,667.7193 c 0,29.78393 -23.66495,53.92857 -52.85715,53.92857 -29.19219,0 -52.85714,-24.14464 -52.85714,-53.92857 0,-29.78393 23.66495,-53.92857 52.85714,-53.92857 29.1922,0 52.85715,24.14464 52.85715,53.92857 z" sodipodi:ry="53.92857" sodipodi:rx="52.857143" sodipodi:cy="667.7193" sodipodi:cx="273.57144" id="path12826" style="fill:#ffffff;fill-opacity:1;stroke:none" sodipodi:type="arc"/>
    </g>
    <g transform="matrix(4.6791651,0,0,4.6791651,487.65511,-456.05166)" id="g2995">
      <path style="fill:#ffffff" id="path9071" d="m 63.607,74.503 c -0.996,-0.052 -2.687,-0.084 -2.9,-1.889 -0.107,-0.907 3.614,-4.249 2.68,-5.58 -0.233,-0.332 -0.909,-0.69 -2.504,-1.143 -1.904,-0.42 -5.314,-0.146 -11.204,1.977 -0.265,0.096 0.079,-0.032 -0.132,0.044 -0.229,0.081 -0.111,0.033 -0.264,0.088 0.182,-0.061 -0.266,0.112 -1.055,0.396 -0.064,0.031 -0.11,0.058 -1.054,0.352 -1.293,-4.653 2.193,-13.24 5.141,-13.533 1.2,-0.119 2.541,1.554 4.262,0.615 3.1,-1.691 3.417,-4.277 2.988,-7.469 -0.327,-2.43 -2.838,-0.132 -4.525,0.527 -1.833,0.716 -1.871,1.146 -2.373,0.659 -1.528,-1.483 -0.681,-4.84 5.316,-11.468 2.105,-2.326 3.053,-5.638 3.164,-6.766 0.127,-1.299 -4.059,2.34 -4.482,1.45 -0.294,-0.62 3.356,-4.171 5.229,-5.141 0.869,-0.45 0.874,0.51 1.494,0.439 0.808,-0.092 5.868,-4.71 5.536,-5.448 -0.218,-0.483 -3.872,1.626 -4.042,1.099 -0.092,-0.285 3.779,-2.241 3.779,-2.241 0,0 -0.021,-0.099 0,-0.176 -1.523,0.546 -21.552,6.944 -37.303,30.537 -25.207,37.752 -14.784,88.684 23.242,113.709 38.026,25.025 89.339,14.686 114.546,-23.067 12.603,-18.876 16.318,-41.086 12.127,-61.688 -4.193,-20.602 -17.543,-39.097 -22.496,-41.477 0.989,0.968 1.641,1.579 1.361,1.933 -0.162,0.206 -1.373,0.438 -2.504,-0.791 -1.132,-1.228 -6.436,-5.342 -7.074,-6.283 -0.64,-0.94 -0.518,-1.26 -0.176,-1.318 0.342,-0.058 0.908,0.137 1.143,0.264 0.233,0.126 -5.178,-4.201 -5.537,-4.438 -0.357,-0.236 -1.348,-0.638 -1.537,-0.571 -0.332,0.117 0.862,0.941 0.658,1.143 -0.186,0.184 -0.742,0.08 -1.186,-0.308 -0.223,-0.194 -6.137,-4.498 -9.754,-5.888 -2.141,0.322 -3.507,0.527 -3.734,0.966 -0.326,0.629 4.822,2.7 5.096,3.208 0.288,0.532 -0.811,1.31 -1.845,1.45 -3.236,0.438 -4.49,-1.133 -4.878,-2.021 -1.359,-3.121 -7.203,-1.975 -12.346,1.362 -2.221,1.441 -10.902,1.425 -10.984,0.308 -0.158,-2.147 0.639,-3.563 -4.614,-2.68 -3.693,0.62 -4.682,1.931 -4.35,2.197 0.615,0.495 3.137,1.382 3.339,2.197 0.137,0.554 -3.165,3.657 -12.259,3.032 -0.904,4.828 -0.866,5.897 0.044,7.381 0.91,1.484 2.371,2.057 3.208,1.846 1.93,-0.488 3.839,-2.784 5.272,-2.812 2.507,-0.052 4.208,2.361 4.086,5.624 0.013,-0.005 0.032,0.005 0.044,0 -0.003,0.114 -0.035,0.201 -0.044,0.308 -0.004,0.044 0.005,0.088 0,0.132 -0.401,3.607 -4.548,2.264 -7.338,1.582 -3.55,-0.869 -3.575,11.03 -0.22,13.313 -6.562,-0.697 -14.868,2.424 -19.245,4.35 -3.61,1.588 3.413,4.926 2.197,6.063 -1.427,1.335 -4.397,2.606 -6.678,3.164 -1.283,0.311 -4.358,0.531 -5.315,0.481 z"/>
      <path style="fill:url(#radialGradient3067)" id="path8102" d="m 63.608,74.503 c -0.996,-0.052 -2.687,-0.084 -2.9,-1.889 -0.107,-0.907 3.614,-4.249 2.68,-5.58 -0.232,-0.332 -0.909,-0.69 -2.504,-1.143 -1.904,-0.42 -5.314,-0.146 -11.204,1.977 -0.265,0.096 0.079,-0.032 -0.132,0.044 -0.229,0.081 -0.111,0.033 -0.264,0.088 0.182,-0.061 -0.265,0.112 -1.055,0.396 -0.064,0.031 -0.109,0.058 -1.054,0.352 -1.293,-4.653 2.193,-13.24 5.141,-13.533 1.2,-0.119 2.541,1.554 4.262,0.615 3.1,-1.691 3.417,-4.277 2.988,-7.469 -0.327,-2.43 -2.838,-0.132 -4.525,0.527 -1.833,0.716 -1.871,1.146 -2.373,0.659 -1.528,-1.483 -0.681,-4.84 5.316,-11.468 2.105,-2.326 3.053,-5.638 3.164,-6.766 0.127,-1.299 -4.059,2.341 -4.482,1.45 -0.294,-0.621 3.356,-4.171 5.229,-5.141 0.869,-0.45 0.874,0.51 1.494,0.439 0.809,-0.092 5.869,-4.71 5.536,-5.448 -0.218,-0.483 -3.872,1.626 -4.042,1.099 -0.092,-0.285 3.779,-2.241 3.779,-2.241 0,0 -0.021,-0.099 0,-0.176 -1.523,0.546 -21.552,6.944 -37.303,30.536 -25.208,37.754 -14.785,88.685 23.242,113.71 38.027,25.025 89.34,14.687 114.546,-23.066 12.604,-18.877 16.318,-41.086 12.127,-61.688 -4.192,-20.602 -17.542,-39.097 -22.496,-41.477 0.99,0.968 1.642,1.579 1.361,1.933 -0.162,0.206 -1.373,0.438 -2.504,-0.791 -1.131,-1.228 -6.435,-5.342 -7.074,-6.283 -0.639,-0.94 -0.518,-1.26 -0.176,-1.318 0.342,-0.058 0.908,0.137 1.143,0.264 0.235,0.127 -5.178,-4.201 -5.536,-4.438 -0.358,-0.237 -1.348,-0.638 -1.538,-0.571 -0.332,0.117 0.863,0.941 0.66,1.143 -0.187,0.184 -0.743,0.081 -1.188,-0.308 -0.221,-0.194 -6.137,-4.498 -9.754,-5.888 -2.141,0.322 -3.506,0.527 -3.734,0.966 -0.326,0.629 4.822,2.7 5.097,3.208 0.288,0.532 -0.812,1.31 -1.845,1.45 -3.236,0.438 -4.49,-1.133 -4.877,-2.021 -1.361,-3.122 -7.204,-1.976 -12.348,1.362 -2.22,1.441 -10.902,1.425 -10.984,0.308 -0.157,-2.147 0.641,-3.563 -4.614,-2.68 -3.693,0.62 -4.681,1.931 -4.35,2.197 0.616,0.495 3.139,1.382 3.34,2.197 0.137,0.554 -3.164,3.657 -12.259,3.032 -0.904,4.828 -0.866,5.897 0.044,7.381 0.91,1.484 2.371,2.057 3.208,1.846 1.931,-0.488 3.839,-2.783 5.272,-2.812 2.507,-0.052 4.208,2.361 4.087,5.624 0.012,-0.005 0.031,0.005 0.043,0 -0.002,0.115 -0.035,0.201 -0.043,0.308 -0.004,0.044 0.004,0.088 0,0.132 -0.4,3.607 -4.549,2.264 -7.338,1.582 -3.55,-0.869 -3.575,11.03 -0.22,13.313 -6.562,-0.697 -14.867,2.424 -19.245,4.35 -3.61,1.588 3.413,4.925 2.197,6.063 -1.427,1.335 -4.397,2.606 -6.679,3.164 -1.285,0.311 -4.359,0.53 -5.316,0.48 z"/>
      <path style="fill:#5a5a5a;stroke:#5a5a5a;stroke-width:0.1406" id="derri__re" d="m 62.074,53.631 c 5.917,0.295 9.529,-1.275 13.181,-2.779 -6.526,-4.731 10.77,-7.035 5.891,-1.149 4.492,0.384 8.05,-2.313 12.289,-3.447 1.699,-0.455 5.111,-0.433 6.829,-1.141 -0.091,4.183 -4.501,2.734 -7.404,2.024 -3.55,-0.869 -3.586,11.026 -0.231,13.309 -6.562,-0.697 -14.824,2.44 -19.201,4.365 -3.611,1.588 3.377,4.899 2.161,6.037 -1.427,1.335 -4.401,2.628 -6.683,3.187 -1.285,0.314 -4.349,0.571 -5.303,0.464 -0.954,-0.107 -0.895,-0.784 0.829,-2.853 1.242,-1.491 1.875,-2.633 -0.103,-4.125 -1.57,-1.185 -2.4,-1.385 -3.43,-1.612 -1.904,-0.42 -5.327,-0.15 -11.217,1.972 1.023,-6.344 2.587,-8.218 3.739,-9.587 1.083,-1.288 2.669,-0.521 4.794,-0.24 2.229,0.295 3.519,-2.337 3.859,-4.425 z"/>
      <path style="stroke:#000000;stroke-width:0.1406" id="path13898" d="m 68.744,21.292 c 0,0 -3.967,2.121 -3.875,2.406 0.17,0.527 3.813,-1.546 4.031,-1.063 0.333,0.738 -4.723,5.345 -5.531,5.438 -0.62,0.071 -0.6,-0.918 -1.469,-0.469 -1.872,0.97 -5.514,4.536 -5.219,5.156 0.423,0.891 4.596,-2.736 4.469,-1.438 -0.11,1.128 -1.051,4.455 -3.156,6.781 -5.998,6.627 -6.841,9.955 -5.313,11.438 0.502,0.487 2.344,-0.625 2.344,-0.625 1.964,-5.714 6.981,-7.681 7.969,-12.969 0.226,-1.21 0.02,-1.227 -1.188,-3.281 0,0 1.249,-1.125 2.031,-1.594 0.815,-0.489 0.777,0.511 1.594,0.25 1.734,-0.553 3.134,-2.167 4.344,-3.719 1.21,-1.552 0.365,-1.848 0.406,-2.375 0.043,-0.54 0.403,0.071 0,-0.875 -0.403,-0.946 -1.437,-3.061 -1.437,-3.061 z m 61.688,2.875 c 0.027,0.809 -0.082,1.658 0.063,2.438 0.117,0.637 1.934,1.56 3.219,2.063 1.041,-0.08 2.131,-0.905 1.844,-1.438 -0.276,-0.508 -2.726,-1.136 -5.126,-3.063 z m -33.907,3.687 c -0.087,0.522 0.048,2.832 0.344,4.219 1.196,-0.563 3.137,-1.478 3,-2.031 -0.202,-0.815 -2.875,-1.551 -3.344,-2.188 z m 47.907,0.375 c -0.298,0.394 -0.4,0.569 -0.5,0.719 0.498,0.388 1.002,0.497 1.188,0.313 0.202,-0.202 -0.513,-0.726 -0.688,-1.032 z m 5.968,4.594 c -0.342,0.059 -0.482,0.403 0.156,1.344 0.882,-0.995 0.145,-0.141 0.969,-1.063 -0.234,-0.126 -0.783,-0.34 -1.125,-0.281 z m 8.375,6.469 c -1.17,1.157 -0.174,0.194 -1.156,1.156 1.131,1.228 2.338,0.987 2.5,0.781 0.279,-0.354 -0.353,-0.969 -1.344,-1.937 z M 96.15,39.479 c -1.433,0.029 -3.382,2.356 -5.313,2.844 -1.674,0.423 -2.505,-1.282 -3.625,-2.375 0.419,2.476 1.034,4.875 3.281,5.406 2.117,0.5 4.474,-2.694 6.563,-2.688 1.222,0.003 2.539,2.195 3.156,2.875 0.303,-3.486 -1.442,-6.116 -4.062,-6.062 z m -37.031,7.906 c -0.186,3.294 0.569,6.747 -2.531,8.438 -1.721,0.938 -3.082,-0.744 -4.281,-0.625 -2.947,0.292 -6.418,8.878 -5.125,13.531 1.96,-0.61 0.101,-0.021 2.344,-0.813 0.755,-4.095 1.773,-8.013 4.281,-10.125 1.299,-1.096 4.68,0.959 6.219,-0.313 1.943,-1.605 3.816,-6.872 -0.907,-10.093 z M 63.4,67.042 c 0.958,1.326 -2.426,4.321 -2.688,5.563 -0.262,1.242 1.042,1.785 2.344,1.781 -1.044,-0.685 1.705,-2.743 2.375,-4.625 0.284,-0.799 -0.212,-1.507 -2.031,-2.719 z"/>
      <path style="stroke:#000000;stroke-width:0.1406;stroke-linecap:round;stroke-linejoin:round" id="path33252" d="m 32.412,113.827 c -1.185,0.124 -1.599,1.118 -0.879,2.899 -2.435,-0.447 -4.144,-0.953 -6.195,-2.021 -0.48,1.264 2.94,1.971 4.569,2.725 0.09,0.605 0.144,1.238 0.22,1.846 -0.195,-0.256 -0.443,-0.459 -0.703,-0.659 -0.714,-0.552 -1.29,-0.924 -1.933,-0.923 -0.386,10e-4 -0.617,-0.044 -0.835,0.22 -0.707,0.854 -0.31,2.048 0.747,3.032 1.057,0.984 2.498,1.458 3.12,0.791 0.015,-0.017 0.03,-0.027 0.044,-0.045 0.211,0.977 0.466,1.951 0.966,2.856 0.132,0.132 0.777,0.646 0.747,0.527 -0.78,-3.861 -1.039,-4.785 -1.274,-7.382 0.288,0.072 0.703,0.216 1.582,0.352 0.398,2.361 0.119,0.838 1.23,6.415 0.533,0.548 0.883,0.929 1.406,1.493 -0.68,-3.897 -1.222,-4.959 -1.45,-7.732 0.39,0.226 0.708,0.215 1.054,0.396 -0.003,-0.021 0.226,-0.542 -0.132,-1.055 -3.581,-0.706 -3.483,-5.145 2.988,-0.527 0.032,0.022 1.054,-0.438 0.22,-1.011 -2.323,-1.592 -4.307,-2.321 -5.492,-2.197 z m -4.833,4.965 c 0.362,0.026 0.963,0.272 1.362,0.615 0.646,0.555 1.289,1.3 0.791,1.714 -0.494,0.41 -1.292,-0.223 -1.889,-0.836 -0.597,-0.613 -0.932,-1.105 -0.527,-1.449 0.06,-0.053 0.142,-0.053 0.263,-0.044 z"/>
      <path style="stroke:#000000;stroke-width:0.1406" id="path37146" d="m 31.279,138.551 c 2.245,0.87 3.332,3.609 3.798,4.205 l 2.302,1.248 -1.851,-3.752 c 0.772,-0.086 6.449,2.748 8.879,5.448 1.968,2.188 2.914,4.53 1.476,6.102 -0.167,0.183 -1.01,0.22 -1.165,-0.319 0.596,-0.69 0.853,-1.719 0.408,-2.906 -0.445,-1.186 -1.411,-2.67 -2.122,-3.26 -1.477,-1.227 -3.42,-2.387 -5.599,-3.216 0.885,2.069 2.06,4.501 3.54,6.911 -1.352,-1.131 -1.916,-2.512 -2.774,-3.524 l -2.357,-1.316 c 0.228,0.331 0.855,1.528 1.227,2.265 -0.854,-1.093 -1.338,-1.918 -2.345,-3.574 -0.447,-0.735 -0.79,-1.477 -1.366,-2.206 -0.505,-0.64 -1.174,-1.19 -1.331,-1.247 -0.102,-0.039 -0.746,0.012 -0.72,-0.859 z"/>
      <path id="text2439" d="m 172.113,85.299 c -0.967,0.927 -1.264,2.099 -0.941,2.596 0.804,1.244 2.05,-0.029 2.58,-0.719 0.371,-0.481 0.592,-1.152 0.541,-1.706 -0.045,-0.494 -0.558,-1.727 -2.18,-0.171 z m 4.866,2.596 c -0.088,-0.452 -1.49,-5.836 -1.514,-5.91 -0.025,-0.073 -0.043,-0.131 -0.055,-0.173 -0.061,-0.218 -0.43,-0.188 -0.675,-0.234 -0.245,-0.046 -0.484,-0.063 -0.718,-0.048 -0.232,0.014 -0.359,-0.016 -0.379,-0.092 -0.031,-0.109 0.061,-0.231 0.271,-0.366 0.227,-0.144 0.582,-0.275 1.068,-0.396 0.486,-0.121 0.748,-0.08 0.787,0.122 0.122,0.593 0.281,0.922 0.572,2.066 l 1.088,4.28 c 0.111,0.439 0.352,1.723 0.44,2.377 0.088,0.654 -0.042,1.053 -0.211,1.161 -0.132,0.085 -0.477,-1.778 -0.674,-2.787 z m -0.565,-0.766 -2.438,2.766 0.28,1.094 c 0.065,0.235 0.063,0.45 0.135,0.789 0.072,0.339 0.125,0.747 0.156,1.225 0.033,0.478 -0.026,0.76 -0.178,0.845 -0.072,0.007 -0.16,-0.11 -0.264,-0.35 -0.104,-0.24 -0.184,-0.481 -0.237,-0.723 -0.054,-0.242 -0.101,-0.419 -0.141,-0.533 l -0.398,-1.786 -1.257,1.033 c -0.066,0.062 -0.176,0.189 -0.331,0.381 -0.154,0.192 -0.281,0.319 -0.38,0.382 -0.163,0.104 -0.494,0.181 -0.995,0.232 -0.501,0.051 -0.772,0.001 -0.813,-0.15 -0.01,-0.034 0,-0.074 0.029,-0.122 0.027,-0.047 0.057,-0.076 0.088,-0.086 0.504,-0.221 1.077,-0.536 1.72,-0.944 0.487,-0.309 1.177,-0.923 1.933,-1.595 0.752,-0.67 1.371,-1.322 1.892,-1.811 l 1.032,-1.146 0.167,0.499 z M 172.4,84.296 c 0.471,-0.279 0.98,-0.635 1.46,-0.524 0.479,0.11 0.898,0.697 0.952,1.254 0.064,0.676 -0.04,1.292 -0.371,1.912 -0.332,0.62 -0.799,1.247 -1.33,1.68 -1.371,1.115 -2.192,0.694 -2.592,-0.106 -0.396,-0.792 0.12,-2.458 0.939,-3.342 0.018,-0.022 0.095,-0.098 0.229,-0.228 0.134,-0.13 0.21,-0.21 0.227,-0.24 0.038,-0.074 0.05,-0.136 0.036,-0.186 -0.014,-0.05 -0.053,-0.094 -0.117,-0.133 -0.064,-0.038 -0.102,-0.074 -0.111,-0.107 l 0.011,-0.051 c 0.013,-0.018 0.039,-0.04 0.081,-0.066 0.078,-0.049 0.191,-0.089 0.341,-0.12 0.15,-0.031 0.233,-0.013 0.252,0.055 0.022,0.084 0.009,0.212 -0.044,0.383 l 0.037,-0.181 z"/>
      <path id="flowRoot2383" d="m 103.961,31.505 1.01,-0.483 0.758,1.986 2.913,-1.468 c 1.34,4.981 0.802,9.445 -2.849,14.859 -0.476,-0.436 -0.757,-0.975 -0.988,-1.327 4.097,-6.718 3.788,-7.722 3.077,-12.109 l -4.487,2.434 -0.013,3.498 -1.188,0.863 0.049,-4.853 2.404,-1.341 m 9.778,-0.697 3.335,5.569 -0.86,0.628 -2.921,-4.698 c -0.256,0.55 -1.045,1.997 -1.826,2.821 -0.086,-0.111 -0.178,-0.197 -0.273,-0.257 -0.086,-0.111 -0.156,-0.189 -0.213,-0.236 0,0 -0.136,-0.075 -0.408,-0.224 0.787,-1.313 1.144,-1.729 1.729,-3.041 0.514,-1.15 0.944,-1.882 1.032,-3.555 l 1.019,-0.045 c -0.089,1.414 -0.426,2.161 -0.614,3.038"/>
      <path style="fill:none" id="path2240" d="m 68.489,20.802 c -30.185,12.312 -51.411,41.46 -51.411,75.89 0,45.48 37.123,82.382 82.867,82.382 45.744,0 82.866,-36.902 82.866,-82.382 0,-21.583 -8.381,-41.194 -22.057,-55.889 -0.944,0.973 -2.523,0.854 -4.744,-1.538 -1.664,-1.792 -8.016,-7.024 -5.141,-6.283 2.34,0.604 -5.632,-5.603 -6.226,-4.856 -0.637,0.8 -0.178,0.256 -0.636,0.806 -4.143,-2.673 -8.955,-6.833 -11.77,-5.616 -2.064,0.893 -1.936,0.31 -1.701,1.249 0.236,0.939 1.389,3.212 3.1,4.092 -0.036,0.003 -0.125,0.294 -2.561,-0.078 -2.87,-0.438 -1.668,-3.673 -5.035,-3.626 -1.932,0.027 -4.068,-0.089 -5.577,0.911 -4.81,3.187 -8.321,2.968 -13.231,3.148 -3.752,0.138 -0.028,-2.932 -3.334,-3.412 -1.465,-0.214 -4.625,0.04 -6.143,0.931 -1.193,0.702 -1.676,0.047 -0.931,5.648 -3.553,1.583 -8.125,0.495 -9.007,1.286 -0.751,0.674 -1.661,7.343 0.823,10.7 3.15,4.257 6.264,-2.86 9.239,-1.122 0.895,0.522 2.204,2.139 1.845,2.417 -1.58,1.221 -2.623,-0.077 -6.59,0.878 -1.654,0.398 -7.293,3.618 -11.983,3.38 0.175,-0.259 0.494,-0.176 0.847,-1.335 0.56,-1.844 -3.014,-3.809 -8.194,0.031 -0.395,0.292 0.766,1.616 1.319,2.45 -2.042,0.533 -5.433,3.064 -13.149,2.726 0.464,-3.383 -2.749,-6.471 -3.56,-6.399 -1.137,0.101 -2.325,1.274 -3.6,1.895 1.542,-2.774 1.806,-3.543 2.713,-4.587 2.836,-3.266 4.478,-4.803 5.559,-8.992 0.108,-0.417 0.604,-0.193 -1.271,-2.734 3.548,-3.262 2.242,-0.979 3.749,-1.461 1.502,-0.481 4.676,-4.711 4.046,-5.947 -0.825,-1.619 0.134,-1.868 -1.121,-4.563 z"/>
      <path style="fill:#5a5a5a;stroke:#5a5a5a;stroke-width:0.1406" id="path10969" d="m 178.598,107.902 c 1.643,-2.445 -0.746,-2.914 -0.467,-4.624 0.494,-3.038 3.916,-8.803 4.438,-9.109 -1.035,-0.245 -2,-11.437 -1.542,-12.192 -0.687,0.412 -0.175,7.76 1.028,12.192 -2.416,3.692 -4.18,8.092 -4.252,9.062 -0.149,2.02 1.713,2.822 0.795,4.671 z"/>
      <path id="text2537" d="m 55.229,31.184 c 0.885,-0.853 1.984,-1.952 1.941,-1.988 -0.162,-0.14 -1.229,0.233 -1.59,0.37 -1.958,1.721 -3.576,3.544 -5.273,5.383 l -0.773,0.12 c 2.392,-2.53 4.829,-5.06 7.95,-7.578 l 0.649,-0.114 -2.068,1.756 c 0.244,-0.063 0.629,-0.189 0.806,-0.226 0.159,-0.032 0.945,-0.258 1.191,-0.146 0.313,0.143 -1.321,1.537 -1.993,2.281 l -0.84,0.142 z"/>
      <path id="text2557" d="m 58.969,81.749 c -0.134,0.024 -0.26,0.064 -0.359,0.131 -0.199,0.135 -0.321,0.295 -0.364,0.482 -0.037,0.162 -0.01,0.313 0.093,0.472 0.104,0.16 0.286,0.275 0.528,0.304 0.065,0.007 0.179,-0.001 0.321,-0.018 0.146,-0.02 0.237,-0.041 0.264,-0.038 0.188,0.022 0.255,0.172 0.195,0.431 -0.068,0.301 -0.266,0.549 -0.572,0.728 -0.306,0.179 -0.653,0.319 -1.017,0.439 l -0.065,0.306 c 1.415,-0.264 2.248,-0.875 2.466,-1.83 0.069,-0.304 0,-0.595 -0.179,-0.892 -0.179,-0.297 -0.456,-0.48 -0.856,-0.527 -0.167,-0.018 -0.32,-0.012 -0.455,0.012 z m 8.536,-0.472 c -2.23,0.313 -4.12,1.124 -5.375,2.238 -1.255,1.115 -2.066,2.763 -1.883,4.066 0.166,1.176 0.583,2.34 1.685,2.972 1.102,0.632 1.86,0.886 3.091,0.887 l 0.047,0.721 -1.447,0.257 c -0.629,0.088 -1.099,0.064 -1.408,-0.045 -0.309,-0.108 -0.703,-0.478 -0.861,-0.84 l -0.788,0.047 0.222,2.153 6.373,-0.895 -0.079,-1.903 c -2.085,-0.249 -2.477,-0.819 -3.127,-1.34 -0.523,-0.419 -1.091,-1.432 -1.214,-2.311 -0.17,-1.213 0.39,-2.792 1.319,-3.664 0.876,-0.822 1.749,-1.219 3.391,-1.582 1.04,-0.23 2.946,-0.326 4.025,0.244 0.475,0.25 1.708,1.213 1.901,2.591 0.296,2.107 -0.671,4.239 -3.649,5.69 l 0.09,1.794 6.978,-1.007 -0.267,-2.28 -0.649,0.015 c -0.146,0.29 -0.567,0.881 -0.746,1.15 -0.168,0.252 -0.411,0.44 -1.132,0.542 l -2.073,0.287 -0.024,-0.752 c 1.415,-0.502 2.567,-1.248 3.313,-2.137 0.745,-0.889 1.031,-2.446 0.876,-3.547 -0.19,-1.357 -1.035,-2.365 -2.53,-3.042 -1.498,-0.677 -3.897,-0.612 -6.059,-0.309 z"/>
      <path id="text2561" d="m 161.449,52.919 c -0.496,0.066 -1.586,0.375 -1.754,0.822 -0.118,0.316 -0.291,0.765 0.789,1.258 0.371,0.169 1.1,-0.34 1.711,-0.366 1.221,-0.052 2.189,2.046 1.615,3.61 -0.4,1.085 -1.649,1.941 -2.94,2.477 -0.895,0.372 -1.572,0.294 -2.188,0.143 -0.67,-0.164 -1.162,-0.625 -1.477,-1.384 -0.217,-0.523 -0.359,-1.106 -0.426,-1.75 0.002,-0.541 0.434,-0.634 0.66,0.592 0.255,0.613 0.722,1.231 1.273,1.361 0.553,0.13 1.223,0.032 2.012,-0.296 0.604,-0.25 1.283,-0.871 1.824,-1.592 0.903,-1.203 0.557,-2.109 -0.044,-2.299 -0.286,-0.09 -1.134,0.487 -1.762,0.425 -1.143,-0.114 -1.999,-1.556 -2.001,-2.071 -0.002,-0.652 0.468,-1.021 0.906,-1.326 0.699,-0.484 1.922,-1.061 1.802,0.396 z m 2.795,6.933 -0.137,1.33 -1.49,-0.141 0.242,-1.248 1.385,0.059 z m -2.012,1.318 -0.119,1.331 -1.483,-0.126 0.104,-1.325 1.498,0.12 z"/>
      <path id="text2565" d="m 66.152,116.143 -0.277,0.145 c 0.939,0.642 1.555,1.14 1.811,1.516 0.256,0.375 0.547,0.396 0.92,0.043 0.373,-0.354 0.455,-0.633 0.219,-0.81 -0.236,-0.177 -1.129,-0.478 -2.673,-0.894 z m 7.088,-0.134 c 0.175,0.862 0.79,4.597 2.255,10.798 l -1.609,0.047 -0.792,-0.302 0.891,0.854 c 0.654,-0.191 1.392,-0.326 2.207,-0.42 l 12.679,-1.448 -2.348,-0.881 -1.47,0.916 -2.177,-9.57 1.071,-0.461 -1.887,-0.646 -1.298,0.787 -5.57,0.639 -1.952,-0.313 z m 1.642,0.622 6.235,-0.697 0.545,2.972 -6.073,0.703 -0.707,-2.978 z m -5.067,1.408 -0.601,0.562 -5.98,0.584 0.796,0.327 c 0.549,-0.153 1.16,-0.251 1.843,-0.318 l 3.161,-0.327 c -0.698,1.203 -1.566,2.261 -2.606,3.163 -1.04,0.902 -2.141,1.684 -3.328,2.367 l 0.285,0.125 c 1.674,-0.832 3.053,-1.617 4.106,-2.387 0.295,3.041 0.448,4.899 0.45,5.566 l 1.349,-0.604 c -0.123,-0.622 -0.32,-2.233 -0.576,-4.878 1.299,0.473 2.144,0.871 2.555,1.231 0.411,0.36 0.736,0.417 0.961,0.146 0.224,-0.273 0.283,-0.527 0.199,-0.753 -0.084,-0.226 -0.817,-0.474 -2.221,-0.736 0.641,-0.497 1.307,-1.015 2.007,-1.551 l 0.728,-0.202 -1.628,-0.516 c -0.302,0.764 -0.807,1.51 -1.491,2.211 l -1.153,-0.174 -0.045,-0.561 c 0.56,-0.688 1.143,-1.444 1.752,-2.271 l 0.998,-0.398 -1.561,-0.606 z m 5.812,1.86 6.1,-0.706 0.635,3.04 -6.183,0.69 -0.552,-3.024 z m 0.616,3.312 6.232,-0.723 0.712,3.434 -6.232,0.724 -0.712,-3.435 z"/>
      <path id="text2569" d="m 135.103,95.226 c 0.32,-0.099 0.616,-0.12 0.888,-0.063 0.272,0.057 0.436,0.172 0.49,0.347 0.133,0.431 -0.228,0.949 -1.082,1.553 -0.854,0.604 -2.313,1.225 -4.378,1.864 -2.075,0.642 -3.634,0.954 -4.674,0.936 -1.04,-0.018 -1.628,-0.243 -1.761,-0.674 -0.053,-0.169 0.015,-0.355 0.201,-0.556 0.188,-0.201 0.451,-0.354 0.791,-0.459 0.341,-0.105 0.652,-0.134 0.933,-0.085 0.28,0.049 0.708,0.215 1.282,0.5 0.806,0.41 1.849,0.417 3.129,0.021 1.27,-0.393 2.127,-0.987 2.57,-1.783 0.303,-0.561 0.553,-0.938 0.753,-1.133 0.2,-0.198 0.485,-0.353 0.858,-0.468 l 0,0 z m 1.386,4.092 c -0.171,-0.547 -0.909,-0.302 -2.011,-0.067 l -0.084,-0.269 6.609,-2.317 0.082,0.269 c -1.174,0.571 -2.123,1.088 -1.938,1.647 l 1.751,7.807 c 0.082,0.219 0.89,0.061 2.086,-0.222 l 0.083,0.269 -6.488,2.455 -0.082,-0.269 c 1.322,-0.657 2.117,-1.132 1.877,-1.882 l -1.324,-6.236 -8.182,10.198 c 0.425,0.067 1.489,-0.018 2.287,-0.194 l 0.082,0.27 -7.271,2.209 -0.082,-0.27 c 1.531,-0.727 2.307,-1.111 2.235,-1.504 l -1.731,-7.873 c -0.054,-0.456 -1.4,-0.392 -2.521,-0.112 l -0.083,-0.269 7.73,-2.429 0.083,0.269 c -0.82,0.394 -2.871,1.131 -2.659,1.831 l 1.458,6.608 8.093,-9.919 z"/>
      <path id="text2601" d="m 177.732,116.47 c -0.322,0.206 -1.773,3.194 -2.62,4.923 l -1.312,1.454 0.086,-3.426 c -0.559,1.03 -1.526,1.255 -1.662,1.103 -0.2,-0.225 0.041,-1.359 0.59,-2.082 0.421,-0.554 1.342,-1.549 1.951,-1.62 0.958,-0.112 0.147,2.568 0.246,3.804 0.795,-1.842 1.741,-3.536 2.863,-5.248 l 0.22,-2.709 c -0.042,-0.51 -0.333,-0.746 -0.884,-0.481 -0.553,0.266 -1.168,0.88 -1.834,1.615 -0.911,1.005 -2.25,2.491 -2.743,3.888 l -1.415,1.318 c 0.217,-2.534 4.01,-6.493 6.432,-8.529 0.545,-0.459 1.1,-0.283 1.264,0.363 0.166,0.65 -0.114,1.461 -0.086,2.986 0.828,-0.791 0.996,-0.787 0.871,0.221 -0.131,1.063 -0.949,2.568 -1.625,3.592 -0.529,0.8 -0.501,-0.103 -0.342,-1.172 z m -4.312,1.925 c -0.373,0.457 -0.561,0.673 -0.521,1.093 0.027,0.31 0.295,0.104 0.619,-0.188 0.331,-0.296 0.548,-0.658 0.533,-1.078 -0.02,-0.519 -0.377,-0.137 -0.631,0.173 z m 5.258,-3.317 c -0.193,0.4 -0.273,0.944 -0.127,1.034 0.129,0.078 0.279,-0.296 0.434,-0.659 0.102,-0.237 0.318,-0.85 0.178,-0.986 -0.132,-0.126 -0.366,0.366 -0.485,0.611 z"/>
      <path id="text2607" d="m 130.316,60.954 c 0.017,0.056 0.007,0.115 -0.03,0.178 -0.038,0.063 -0.087,0.103 -0.148,0.122 -0.499,0.188 -0.88,0.426 -1.146,0.714 -0.265,0.288 -0.487,0.75 -0.668,1.388 l -2.384,9.559 c -0.012,0.085 -0.097,0.152 -0.255,0.201 -0.123,0.038 -0.23,0.03 -0.322,-0.024 l -4.227,-3.29 -2.108,5.227 c -0.046,0.095 -0.13,0.162 -0.253,0.2 -0.152,0.046 -0.263,0.04 -0.334,-0.021 l -7.621,-6.474 c -0.477,-0.401 -0.922,-0.647 -1.34,-0.736 -0.418,-0.089 -0.953,-0.06 -1.607,0.089 -0.055,0.017 -0.111,0.012 -0.172,-0.013 -0.061,-0.025 -0.098,-0.063 -0.113,-0.115 -0.041,-0.131 -0.006,-0.213 0.104,-0.247 0.461,-0.141 0.945,-0.273 1.456,-0.398 0.476,-0.115 0.919,-0.235 1.331,-0.361 0.418,-0.128 0.908,-0.293 1.471,-0.495 0.588,-0.211 1.113,-0.387 1.572,-0.527 0.111,-0.034 0.186,0.015 0.227,0.146 0.039,0.131 0.025,0.207 -0.044,0.228 -0.453,0.164 -0.791,0.354 -1.015,0.571 -0.223,0.216 -0.301,0.434 -0.233,0.654 0.034,0.112 0.132,0.235 0.294,0.37 l 6.268,5.248 1.469,-3.851 -3.238,-2.527 c -0.582,-0.451 -1.027,-0.719 -1.34,-0.805 -0.311,-0.086 -0.736,-0.067 -1.277,0.057 -0.048,0.015 -0.1,0.009 -0.156,-0.017 -0.057,-0.026 -0.094,-0.065 -0.109,-0.116 -0.04,-0.131 -0.012,-0.211 0.084,-0.24 0.461,-0.141 0.887,-0.256 1.279,-0.345 0.38,-0.085 0.779,-0.192 1.197,-0.32 0.412,-0.126 0.844,-0.273 1.296,-0.442 0.466,-0.173 0.929,-0.33 1.388,-0.471 0.11,-0.034 0.186,0.015 0.226,0.146 0.04,0.131 0.025,0.207 -0.043,0.228 -0.907,0.323 -1.313,0.642 -1.218,0.955 0.043,0.14 0.215,0.325 0.519,0.554 l 2.124,1.604 0.906,-2.338 c 0.125,-0.329 0.159,-0.585 0.104,-0.767 -0.131,-0.43 -0.662,-0.518 -1.59,-0.265 -0.082,0.025 -0.145,-0.028 -0.184,-0.159 -0.015,-0.047 -0.008,-0.098 0.021,-0.152 0.028,-0.055 0.063,-0.088 0.104,-0.101 0.33,-0.101 0.739,-0.21 1.229,-0.329 0.469,-0.113 0.851,-0.214 1.146,-0.305 0.213,-0.065 0.522,-0.172 0.927,-0.321 0.512,-0.192 0.943,-0.342 1.293,-0.449 0.082,-0.025 0.141,0.019 0.176,0.131 0.045,0.149 -0.008,0.247 -0.158,0.293 -0.524,0.201 -0.925,0.433 -1.201,0.696 -0.275,0.263 -0.569,0.759 -0.88,1.487 l -1.217,3.092 3.813,2.895 1.636,-7.369 c 0.066,-0.271 0.071,-0.502 0.013,-0.693 -0.14,-0.458 -0.675,-0.56 -1.603,-0.307 -0.083,0.025 -0.145,-0.028 -0.185,-0.159 -0.04,-0.131 0.002,-0.215 0.126,-0.253 0.336,-0.103 0.738,-0.21 1.207,-0.323 0.436,-0.103 0.797,-0.198 1.084,-0.286 0.303,-0.092 0.648,-0.213 1.039,-0.363 0.402,-0.154 0.77,-0.281 1.099,-0.382 0.092,-0.031 0.156,0.01 0.191,0.123 l 0,0 z"/>
      <path id="path2724" d="m 145.187,140.114 c -0.021,-3.786 -0.076,-3.94 -0.208,-6.634 -4.428,1.7 -11.522,4.574 -12.641,4.791 -1.17,0.228 -2.635,0.102 -2.391,-0.762 0.199,-0.708 1.609,-2.193 2.875,-2.657 -0.405,0.536 -0.694,1.016 0,1.063 0.892,0.061 4.592,-1.49 6.398,-2.082 1.789,-0.587 5.521,-2.623 6.624,-2.18 1.12,0.451 0.882,4.145 0.882,6.814 0.001,0.38 0.115,0.701 -0.063,0.971 -0.325,0.5 -0.958,0.557 -1.476,0.676 z"/>
      <path id="flowRoot2567" d="m 83.363,153.66 c 0.276,0.33 1.403,0.373 1.981,0.571 0.579,0.198 3.501,0.315 4.41,0.253 1.026,-0.07 2.216,-0.533 2.75,-0.904 0.459,-0.317 0.728,-0.688 0.699,-1.102 -0.064,-0.938 -2.606,-1.73 -4.619,-2.158 -1.843,-0.391 -5.326,-0.01 -7.9,0.089 -3.184,0.122 -5.569,0.262 -8.387,0.286 -0.338,0.002 -0.784,-0.311 -0.782,-0.625 0.003,-0.475 0.675,-0.66 0.758,-1.268 0.02,-0.144 0.039,-0.277 -0.045,-0.31 -0.05,-0.019 -0.517,-0.038 -0.749,-0.005 -0.179,0.027 -0.329,0.123 -0.895,0.146 -0.232,0.01 -0.668,0 -0.965,-0.128 -0.261,-0.112 -1.051,-0.552 0.049,-0.737 0.39,-0.065 2.347,-0.352 3.133,0.311 0.803,0.676 -0.072,1.525 -0.072,1.525 0,0 2.511,0.003 3.801,-0.035 3.388,-0.103 11.173,-0.786 11.173,-0.786 0.527,-0.036 1.762,-0.397 2.083,-0.595 0.301,-0.184 0.521,-0.401 0.431,-0.582 -0.379,-0.76 -0.868,-0.73 -1.895,-0.915 1.527,-0.323 3.148,0.054 3.233,0.956 0.1,1.063 -1.098,1.646 -2.437,2.178 1.419,0.221 3.218,0.806 4.082,1.311 0.865,0.506 1.439,0.916 1.482,1.541 0.044,0.635 -0.284,1.193 -1.093,1.711 -0.922,0.582 -2.147,1.006 -4.222,1.096 -1.713,0.073 -4.599,-0.369 -5.631,-0.815 -0.951,0.584 -2.782,1.21 -4.463,1.325 -1.515,0.105 -3.691,-0.14 -4.405,-0.508 -0.909,-0.467 -1.469,-0.793 -1.509,-1.376 -0.032,-0.46 0.099,-0.927 0.801,-1.106 0.286,-0.072 1.356,-0.307 2.599,-0.225 1.57,0.104 3.349,0.793 2.332,1.661 -0.234,0.2 -0.641,0.144 -1.171,-0.009 1.156,-1.217 -3.406,-1.022 -3.368,-0.462 0.023,0.337 0.332,0.604 0.925,0.804 0.604,0.21 2.759,0.347 3.629,0.287 0.929,-0.064 2.404,-0.471 2.964,-0.744 0.56,-0.273 1.038,-0.295 1.293,-0.656 z m -12.06,-5.578 c 0.003,-0.104 -0.424,-0.121 -0.662,-0.117 -0.235,0.002 -0.641,0.053 -0.638,0.137 0.003,0.084 0.386,0.188 0.62,0.185 0.231,-0.004 0.677,-0.104 0.68,-0.205 z"/>
      <path id="path2658" d="m 143.754,40.094 c -2.576,-5.508 -3.352,-6.882 0.062,-7.438 -1.009,-0.527 -1.292,-0.976 -1.95,-0.798 -1.506,0.406 -3.648,-1.188 -4.617,-1.593 0.963,-0.372 2.352,-0.729 2.998,-0.779 0.131,-0.011 1.447,0.511 1.611,0.486 -0.244,-0.546 -2.668,-2.069 -3.053,-1.98 -2.09,0.484 -5.148,1.357 -6.493,1.711 0.439,0.938 4.979,1.489 7.333,2.714 0.02,0.792 1.092,6.117 4.109,7.677 z"/>
      <path id="text2170" d="m 30.719,81.217 -0.655,1.561 c 0.03,0.188 0.22,1.654 -0.372,2.778 l 2.04,-0.035 c 0.033,-0.761 0.837,-1.978 -0.776,-2.733 l 0.527,-1.438 1.905,-0.044 c -0.813,1.311 -1.208,3.487 -1.196,4.201 l 0.668,-0.015 c -0.734,2.094 -1.008,3.223 -1.198,6.109 -1.803,-1.697 -5.234,-1.79 -5.656,-1.562 0.078,-1.116 1.066,-3.005 1.232,-3.294 l -0.386,-0.056 0.521,-1.209 1.801,0.086 c 0.275,-0.512 0.666,-1.071 0.464,-2.715 -0.808,-0.064 -1.475,-0.137 -1.734,0.017 -0.455,0.27 -0.824,0.772 -0.959,2.2 -0.13,-1.377 -0.115,-2.403 0.278,-3.009 0.198,-0.315 0.53,-0.507 0.796,-0.76 l 2.7,-0.082 z m 0.768,6.261 c -0.531,-0.821 -3.277,-0.788 -3.59,-0.771 -0.445,0.381 -0.819,1.515 -0.958,2.004 1.738,-0.222 3.731,1.319 4.422,2.004 -0.028,-0.944 0.163,-2.175 0.126,-3.237 z m 1.99,-6.897 c -0.341,0.02 -1.07,-0.662 -1.8,-1.364 -0.917,-0.884 -2.663,-1.534 -3.31,-0.772 -0.165,0.194 -0.296,0.377 -0.285,0.78 0.005,0.168 0.142,0.37 0.382,0.466 0.185,0.073 0.448,0.122 0.804,0.141 -0.081,0.631 -0.131,1.063 -0.462,1.065 -1.354,0.011 -1.701,-1.254 -1.603,-1.866 0.114,-0.706 0.277,-0.971 0.546,-1.311 0.542,-0.686 1.161,-0.71 1.737,-0.744 1.49,-0.087 2.941,2.455 3.991,3.605 z"/>
      <path id="path2576" d="m 34.515,56.854 2.883,-5.56 1.7,-0.429 0.723,0.568 -1.982,3.961 c -0.197,0.393 -0.084,0.814 0.427,0.785 0.549,-0.031 1.382,-0.257 1.597,-0.714 l 1.535,-3.268 -0.606,-1.095 1.715,-0.82 0.357,0.399 0.567,-0.031 -1.046,0.622 -0.37,-0.492 -0.702,0.327 0.588,1.049 -1.503,3.212 c -0.433,0.924 -2.276,1.376 -2.882,1.093 -0.343,-0.161 -0.239,-0.776 -0.074,-1.118 l 1.813,-3.777 -0.334,-0.31 -1.275,0.293 -1.86,3.511 c 0.315,-0.208 1.167,-0.469 0.621,0.52 -0.311,0.564 -1.379,1.366 -1.379,1.366 l -0.513,-0.092 z m 0.663,-0.546 0.427,-0.834 c 0.53,-0.434 0.729,-0.36 0.512,0.028 -0.157,0.28 -0.581,0.73 -0.939,0.806 z"/>
      <path style="fill:url(#radialGradient3069)" id="path33245" d="m 77.494,103.215 c -2.028,1.587 2.352,2.819 3.201,4.322 0.85,1.504 -2.012,3.105 -1.953,3.111 0.084,0.008 3.224,-1.896 2.423,-3.332 -0.802,-1.437 -4.994,-2.726 -3.671,-4.101 z M 68.541,21.266 c 0.054,-0.034 -0.225,0.088 -0.47,0.181 -0.043,0.082 -2.352,1.088 -3.618,2.243 -0.049,0.267 0.91,0.869 3.364,-0.362 -0.39,0.584 -2.729,3.042 -4.269,3.979 -0.668,0.407 -0.498,-0.543 -1.483,-0.109 -1.501,0.662 -5.509,3.605 -5.788,5.896 -0.13,1.076 4.583,-2.348 4.341,-1.375 -0.303,1.218 -2.265,6.316 -5.824,8.826 -3.203,0.584 -3.383,0.554 -5.571,0.977 -2.851,0 5.469,-4.724 1.592,-4.919 -4.885,-0.248 -5.668,2.354 -6.765,4.485 1.243,-2.1 2.22,-4.689 6.837,-4.413 3.188,0.191 -4.84,4.992 -1.736,4.992 2.187,-0.422 2.512,-0.428 5.715,-1.013 3.559,-2.51 5.593,-7.698 5.896,-9.08 0.215,-0.979 -4.582,2.482 -4.413,1.411 0.315,-2.002 4.293,-5.039 5.788,-5.715 0.84,-0.38 0.706,0.624 1.375,0.217 1.539,-0.938 4.187,-3.629 4.63,-4.413 -2.455,1.231 -3.558,0.882 -3.509,0.615 1.207,-1.099 3.655,-2.261 3.908,-2.423 z M 44.052,41.089 c -0.93,1.571 -2,2.893 -4.847,2.496 2.204,-2.627 5.171,-5.665 7.053,-8.066 -1.229,0.907 -1.248,0.739 -0.687,0.108 -0.841,0.881 -1.075,1.26 0.29,0.253 -2.334,2.546 -4.596,5.186 -6.801,7.813 3.155,0.402 4.154,-0.976 4.992,-2.604 z M 67.926,21.483 c -0.254,0.074 -0.914,0.309 -2.134,0.724 -3.053,1.557 -5.918,3.347 -9.043,4.811 -2.239,2.002 -3.58,2.777 -5.317,4.377 0.327,-0.725 -0.049,-0.632 -0.76,-0.181 0.606,-0.337 0.923,-0.322 0.615,0.362 1.737,-1.6 3.295,-2.483 5.534,-4.485 3.125,-1.464 5.99,-3.253 9.043,-4.811 1.181,-0.453 1.667,-0.649 2.062,-0.797 z m 67.463,2.207 c 2.404,1.303 5.304,3.555 8.139,5.1 -1.575,-1.052 -4.251,-3.199 -8.139,-5.1 z m -9.912,1.193 c -0.72,-0.009 -1.619,0.098 -2.748,0.29 7.445,-1.014 2.031,5.433 11.611,3.545 -7.402,0.561 -3.821,-3.77 -8.863,-3.835 z m -23.151,0.616 c -2.165,0.145 -4.655,0.908 -5.499,1.664 1.236,-0.892 5.512,-1.783 7.235,-1.157 1.526,0.554 -1.095,1.55 1.303,2.966 0.963,0.569 4.533,0.586 7.668,0.036 -3.114,0.393 -6.455,-0.039 -7.162,-0.289 -1.191,-0.423 0.341,-2.564 -1.121,-3.039 -0.641,-0.209 -1.508,-0.243 -2.424,-0.181 z m 15.519,1.735 c -0.339,1.23 4.522,7.381 8.066,7.488 1.062,0.032 1.511,-1.123 2.243,-1.845 0.73,-0.722 1.208,-1.187 1.627,-1.266 0.33,-0.062 -0.853,-0.532 -1.627,0.036 -0.775,0.568 -1.486,2.012 -2.135,2.17 -2.312,0.565 -6.901,-5.639 -8.174,-6.583 z m -21.306,0.29 c -0.027,0.08 -0.043,0.142 0,0.217 -0.022,-0.074 -0.027,-0.139 0,-0.217 z m 47.929,0.651 c -0.026,0.066 0.38,0.325 0.614,0.615 -0.085,-0.183 -0.211,-0.361 -0.434,-0.542 0.669,-0.141 5.195,3.424 5.787,3.943 0.973,0.85 -1.005,0.038 -0.904,0.759 0.169,1.201 3.906,4.468 7.055,7.488 -1.639,0.561 -3.689,2.572 -3.689,3.798 -0.002,2.127 3.106,2.963 4.123,4.305 0.963,1.271 -0.629,1.993 -4.305,3.038 2.041,0.879 6.205,-0.382 5.426,-2.785 -0.858,-2.647 -3.676,-2.053 -4.232,-4.449 -0.209,-0.906 2.84,-3.209 3.365,-3.4 3.467,2.575 8.484,8.187 8.102,9.441 -0.129,0.423 -1.67,-1.107 -2.496,-0.651 -1.443,0.796 3.868,8.895 5.535,9.622 0.604,0.264 1.005,-3.973 0.506,-3.979 -0.998,-0.012 -0.082,3.27 -0.688,2.966 -0.641,-0.322 -4.768,-5.611 -4.666,-7.524 0.037,-0.678 2.621,0.829 2.568,-0.109 -0.084,-1.533 -4.953,-7.069 -8.935,-10.454 -5.745,-5.455 -7.446,-6.85 -7.126,-7.307 0.347,-0.441 1.736,0.407 1.447,0.036 -0.676,-0.864 -5.262,-4.405 -6.547,-4.738 -0.355,-0.092 -0.494,-0.107 -0.506,-0.073 z m 0.614,0.615 c 0.105,0.225 0.115,0.411 0.072,0.542 0.012,-0.012 0.027,-0.022 0.037,-0.036 0.112,-0.157 0.025,-0.341 -0.109,-0.506 z m 0.072,0.543 c -0.076,0.082 -0.191,0.121 -0.324,0.108 0.033,0.016 0.074,0.021 0.107,0.036 0.12,0.054 0.177,-0.018 0.217,-0.144 z m -1.482,-0.471 c 0.465,0.303 0.861,0.539 1.121,0.579 -0.377,-0.173 -0.741,-0.375 -1.121,-0.579 z m -13.781,3.256 c 2.166,1.255 4.93,3.773 5.533,5.571 0.49,1.455 -1.178,0.923 -3.255,0.94 1.995,0.787 4.593,0.999 4.341,-0.796 -0.319,-2.271 -4.067,-5.724 -6.619,-5.715 z m -33.787,0.47 c -2.837,0.93 -5.365,0.375 -8.464,0.579 -0.007,0.099 -0.023,0.281 -0.036,0.398 2.75,-0.181 5.39,0.215 8.5,-0.977 z m -8.536,1.23 c -0.262,1.799 -0.612,3.609 -0.543,4.883 0.013,-1.362 0.375,-3.521 0.543,-4.883 z M 49.84,36.856 c -1.354,0.08 -3.264,0.792 -3.654,1.592 -1.667,3.415 -4.08,6.605 -7.343,5.57 -2.05,1.734 -6.248,7.07 -6.186,9.478 0.014,0.545 2.438,-2.649 2.641,-2.098 0.334,0.907 -0.757,3.131 -1.7,4.666 -0.808,1.315 -1.819,3.047 -2.966,3.762 -0.22,0.137 -0.502,-1.894 -0.832,-1.447 -2.301,3.12 -4.967,7.872 -4.883,10.924 0.048,1.735 3.179,2.937 5.317,0 0.749,-1.028 -0.086,-4.456 0.832,-5.39 0.55,-0.559 1.587,-1.288 2.858,-1.519 1.235,-0.225 3.994,0.257 3.798,1.519 -0.361,2.328 -3.612,4.042 -2.387,5.245 2.018,1.982 8.366,1.521 11.431,-0.253 -1.458,-4.743 1.85,-12.94 5.281,-13.999 1.186,-0.366 2.264,1.17 3.762,0.76 2.756,-0.756 3.394,-3.46 3.437,-5.137 0.04,-1.589 0.433,-3.546 -0.94,-3.219 -1.76,0.419 -4.75,3.738 -6.113,2.459 -2.215,-2.077 1.09,-5.888 2.604,-8.681 -1.512,0.011 -6.168,1.422 -7.054,0.651 -0.004,1.388 4.772,-0.168 6.438,-0.181 -1.514,2.793 -4.47,6.328 -2.387,8.537 1.065,1.129 4.281,-1.643 6.041,-2.062 1.374,-0.327 0.98,1.233 0.94,2.822 -0.042,1.676 -0.355,3.729 -3.111,4.485 -1.498,0.411 -2.432,-1.306 -3.618,-0.94 -3.431,1.059 -7.425,9.544 -5.968,14.288 -3.064,1.775 -8.183,1.672 -10.201,0.362 -1.439,-0.935 1.882,-3.026 2.243,-5.354 0.196,-1.262 -2.744,-1.853 -3.979,-1.628 -1.27,0.231 -2.814,1.141 -3.364,1.7 -0.918,0.934 -0.01,4.451 -0.868,5.39 -2.139,2.34 -4.655,1.808 -4.703,0.072 -0.083,-3.053 2.519,-7.379 4.521,-10.201 0.322,-0.453 0.612,1.403 0.832,1.266 1.146,-0.715 2.291,-2.647 3.183,-3.907 1.027,-1.451 2.365,-4.586 1.917,-5.606 -0.236,-0.538 -2.847,2.663 -2.713,2.134 0.61,-2.407 3.991,-6.802 6.041,-8.537 3.263,1.034 5.675,-2.191 7.343,-5.606 0.446,-0.914 2.875,-1.68 4.196,-1.556 0.213,0.02 0.335,0.056 0.434,0.108 0.089,-0.233 -0.048,-0.384 -0.579,-0.434 -0.164,-0.014 -0.348,-0.046 -0.541,-0.035 z m 1.121,0.471 c -0.286,0.749 -2.991,2.324 -3.364,3.943 -0.048,0.209 0.019,0.36 0.145,0.47 0,-0.051 -0.014,-0.085 0,-0.145 0.443,-1.921 4.153,-3.776 3.219,-4.268 z m 79.834,0.47 c -0.938,-0.031 -1.498,0.952 -1.483,1.954 0.024,1.589 3.729,9.086 6.692,10.092 -4.939,3.132 -6.051,2.256 -13.313,3.4 4.711,-0.299 10.92,0.659 15.121,-3.689 -3.732,-1.789 -6.012,-5.936 -7.162,-9.767 -0.431,-1.431 0.34,-1.281 1.193,-1.592 -0.387,-0.272 -0.736,-0.387 -1.048,-0.398 z m -43.77,1.158 c 0.016,0.379 0.062,0.664 0.181,0.796 0.042,0.046 0.068,0.064 0.108,0.108 -0.082,-0.142 -0.169,-0.283 -0.217,-0.47 -0.033,-0.131 -0.055,-0.285 -0.072,-0.434 z m 8.537,0.072 c -0.162,-0.004 -0.326,0 -0.47,0.036 -2.375,0.6 -4.09,2.99 -5.751,2.894 -0.71,-0.7 -1.081,-1.056 -1.411,-1.375 1.374,1.559 1.747,1.972 3.111,1.519 2.052,-0.682 3.43,-2.814 5.788,-2.713 0.138,0.006 0.268,0.029 0.398,0.072 -0.532,-0.24 -1.111,-0.418 -1.665,-0.433 z m -57.949,4.485 -0.036,0.072 0.76,0.29 c -1.339,1.493 -6.04,5.94 -6.077,9.477 -0.003,0.317 0.09,0.498 0.217,0.615 0.246,0.227 0.793,-0.275 2.062,-1.592 0.025,-0.026 0.308,-0.342 0.326,-0.036 0.058,1.002 -2.955,5.445 -3.653,6.258 -0.379,0.44 -0.449,0.425 -0.579,0.072 -0.308,-0.834 -0.411,-1.236 -0.579,-1.193 -0.333,0.084 -2.649,3.16 -4.341,6.909 -0.535,1.185 -1.052,2.583 -1.375,3.871 -0.255,-0.204 -0.857,-0.713 -1.121,-0.796 l -0.073,0.253 c 0.417,0.179 0.788,0.383 1.302,1.121 0.573,-3.425 3.389,-8.872 5.535,-11.105 0.297,-0.309 0.621,1.755 0.94,1.411 1.704,-1.833 4.16,-5.951 4.087,-6.909 -0.067,-0.881 -1.768,1.552 -2.315,1.628 -0.09,0.012 -0.311,-0.085 -0.326,-0.253 -0.251,-2.781 3.276,-6.785 6.149,-9.73 l -0.903,-0.363 z m 108.916,1.628 c -4.121,-0.088 -9.361,3.242 -8.754,3.871 0.852,0.879 5.472,-4.281 11.358,-3.184 -0.744,-0.456 -1.653,-0.666 -2.604,-0.687 z m 0.579,0.977 c 5.247,0.816 -0.491,7.374 6.981,6.33 -6.168,-0.501 -0.343,-6.634 -6.981,-6.33 z m -30.674,0.759 c -6.236,0.206 -12.337,3.048 -10.418,5.498 0.938,1.197 5.089,2.422 4.16,3.689 -2.068,2.825 -7.201,3.125 -16.35,4.088 13.663,-0.297 14.62,-1.092 17.653,-3.871 2.068,-1.898 -3.398,-2.918 -4.232,-4.847 -0.904,-2.093 7.317,-4.779 13.203,-4.269 -0.904,-0.166 -1.838,-0.265 -2.785,-0.289 -0.416,-0.009 -0.815,-0.012 -1.231,10e-4 z m 1.519,0.76 c -0.285,-0.003 -0.57,0.019 -0.868,0.037 -1.427,0.084 -2.951,0.4 -4.052,0.94 2.82,-0.399 5.203,-1.021 6.439,0.145 0.633,0.597 -0.834,2.583 -0.651,3.726 0.355,2.219 1.403,1.836 11.395,1.266 -9.059,-0.292 -11.337,1.105 -9.151,-4.377 0.453,-1.138 -1.121,-1.71 -3.112,-1.737 z m 20.257,2.713 c -0.079,-0.002 -0.142,0.025 -0.181,0.072 -0.768,0.917 5.346,4.902 5.209,9.115 -0.055,1.654 0.021,1.795 -2.605,1.556 2.179,0.691 3.982,0.96 4.016,-1.411 0.056,-3.984 -5.255,-9.304 -6.439,-9.332 z m 31.289,6.005 c 1.947,3.006 3.429,4.58 5.064,9.188 -2.471,1.797 -4.827,4.893 -4.63,7.56 0.15,2.029 2.752,3.106 2.676,4.377 -0.098,1.675 -2.818,4.156 -4.629,4.63 2.647,1.741 5.885,-3.094 5.859,-5.317 -0.013,-1.104 -2.105,-1.549 -2.641,-3.689 -0.603,-2.408 3.231,-6.241 3.581,-6.547 1.46,1.271 3.589,14.961 4.991,8.898 -1.504,4.053 -2.781,-5.797 -4.521,-9.115 0.803,-0.478 0.434,-0.326 1.158,-0.977 -0.11,-0.251 0.01,-0.482 -0.361,-0.868 -0.885,0.674 -0.635,0.398 -1.122,0.868 -1.131,-3.8 -3.014,-7.045 -5.425,-9.008 z m -59.974,2.423 c -7.551,1.948 -9.676,1.857 -14.687,2.134 5.144,0.752 8.984,-0.315 14.687,-2.134 z m -18.629,1.7 c -0.484,0.004 -1.152,0.034 -2.062,0.073 2.2,0.022 2.948,0.751 2.966,0.723 2.439,2.163 4.006,5.933 3.871,9.116 -0.12,2.808 -1.073,4.556 -5.535,3.328 -4.291,-1.181 -9.327,0.402 -8.428,5.426 0.606,3.386 0.743,7.865 6.765,7.416 -3.716,0.046 -5.92,-4.444 -5.643,-8.284 0.375,-5.255 5.18,-4.869 9.115,-3.942 2.137,0.502 4.115,0.755 5.245,-4.015 0.429,-1.806 -0.977,-5.753 -4.557,-9.767 -0.381,-0.001 -0.286,-0.087 -1.737,-0.074 z m 47.603,0.398 c -0.392,-0.01 -0.74,0.014 -1.085,0.036 -2.068,0.136 -3.261,0.953 -3.364,2.568 -0.23,3.659 2.892,10.07 7.38,8.935 -4.474,-2.009 -5.973,-5.527 -5.788,-9.333 0.079,-1.626 1.747,-2.031 4.124,-2.098 -0.444,-0.053 -0.875,-0.098 -1.267,-0.108 z m -49.81,0.109 c -5.286,0.119 -13.002,3.445 -15.482,4.702 -1.176,0.597 3.975,3.859 2.966,5.281 -2.797,3.945 -11.212,4.626 -14.976,3.617 -3.972,-1.065 3.491,-6.34 1.338,-7.668 -2.733,-1.688 -8.548,-0.332 -14.831,2.351 0.684,5.737 0.947,6.656 -0.326,10.563 -0.451,1.383 -2.113,4.909 -5.932,1.953 -2.036,-1.575 -3.839,0.117 -4.269,3.22 -0.591,4.268 0.253,8.449 4.087,5.1 1.522,-1.33 3.909,-0.67 4.341,0.579 1.818,5.261 3.292,8.867 0.832,13.493 12.313,-3.321 17.079,-1.232 18.846,-0.543 2.376,0.927 0.17,3.237 -1.772,5.896 2.865,-2.979 4.292,-5.059 2.17,-6.403 -3.796,-2.406 -12.763,-1.166 -18.412,0.362 1.935,-4.125 -0.049,-9.876 -1.338,-12.914 -0.75,-1.767 -3.477,-2.388 -4.883,-0.94 -4.109,4.229 -3.578,-2.322 -3.184,-5.064 0.248,-1.723 1.373,-3.691 3.328,-2.315 2.084,1.466 4.097,2.917 6.547,-1.809 1.751,-3.378 1.57,-7.315 0.796,-11.141 6.221,-2.442 10.667,-3.64 13.528,-1.772 1.283,0.838 -4.616,4.79 -2.604,6.692 2.162,2.044 13.463,1.377 16.748,-2.568 2.125,-2.552 -4.363,-5.094 -2.46,-6.041 3.688,-1.834 11.109,-4.653 17.038,-4.449 -0.632,-0.129 -1.341,-0.199 -2.096,-0.182 z m 50.461,0.904 c -0.424,0.005 -0.846,0.049 -1.303,0.145 2.01,0.683 2.83,0.823 5.209,0.398 -1.47,-0.251 -2.634,-0.56 -3.906,-0.543 z M 34.466,62.901 c -1.061,0.008 -2.157,0.257 -2.785,0.832 -1.16,1.06 -0.28,4.173 -1.23,5.86 -1.341,2.381 -4.083,2.792 -6.077,0.651 -0.68,4.03 -2.409,12.244 -3.689,11.901 0.032,0.021 0.038,0.095 0.072,0.109 1.27,0.519 3.155,-7.222 3.834,-11.214 1.971,2.099 5.185,0.67 6.511,-1.664 0.94,-1.653 -0.346,-4.716 1.013,-5.462 1.561,-0.857 5.619,-0.751 4.521,0.579 -1.084,1.313 -3.057,3.416 -2.207,5.317 0.986,2.205 8.37,2.395 12.19,0.181 0.304,4.426 0.628,9.765 -2.17,11.575 -1.391,0.899 -2.968,-1.812 -4.702,-1.881 -3.775,-0.154 -5.975,10.998 -1.375,12.914 1.603,0.667 2.486,-1.776 5.172,-2.207 1.443,-0.231 3.283,10.275 1.7,12.66 -2.511,3.784 -12.105,1.178 -13.818,-0.795 -0.884,-1.019 2.785,-3.605 1.7,-5.245 -1.843,-2.785 -7.081,-3.773 -8.682,-2.207 -1.985,1.943 1.527,6.029 -0.036,7.306 -1.021,0.835 -3.382,-0.537 -4.268,-2.423 0.183,-3.738 0.994,-16.184 -0.832,-12.914 -0.013,-1.39 -0.044,-2.365 0.036,-3.256 -0.12,1.165 -0.157,2.394 -0.145,3.762 1.8,-3.248 0.759,9.055 0.651,12.841 1.186,2.291 3.706,3.456 4.739,2.604 1.581,-1.304 -1.792,-5.505 0.217,-7.487 1.619,-1.598 5.269,-0.436 7.596,1.845 1.43,1.4 -2.143,4.011 -1.627,5.281 0.785,1.936 11.947,5.658 15.337,0.832 1.674,-2.384 -0.357,-13.765 -2.532,-13.239 -2.675,0.647 -3.527,2.919 -5.1,2.134 -4.266,-2.129 -1.667,-11.744 1.338,-11.684 1.755,0.035 3.44,2.69 4.847,1.772 2.83,-1.847 2.694,-8.254 2.387,-12.769 -4.212,2.529 -11.656,1.606 -12.19,0.362 -0.836,-1.95 1.255,-4.086 2.351,-5.426 0.696,-0.846 -0.979,-1.458 -2.747,-1.445 z m 112.027,4.485 c -2.624,0.281 -5.432,3.489 -4.991,4.196 0.791,1.271 3.486,-3.989 6.041,-4.124 -0.18,-0.044 -0.359,-0.063 -0.543,-0.072 -0.173,-0.009 -0.332,-0.018 -0.507,0 z M 23.108,68.327 c -0.162,-0.009 -0.304,0.068 -0.362,0.253 -0.154,0.499 1.615,-0.333 1.085,2.207 -0.443,2.126 -1.181,6.629 -2.641,9.441 -0.178,0.342 -0.493,-2.198 -0.832,-2.062 -1.094,0.44 -2.143,9.442 -1.411,10.382 0.012,0.016 0.42,-0.853 0.542,-0.434 0.697,2.382 -0.258,3.64 -0.217,10.165 -0.161,-0.584 -1.461,-3.254 -1.556,-2.207 -0.028,0.311 0.955,2.299 1.7,3.111 -0.091,-3.564 1.147,-9.501 0.253,-11.756 -0.115,-0.29 -0.524,0.522 -0.651,0.651 -0.154,-2.831 0.023,-7.33 1.194,-9.333 0.229,-0.391 0.488,2.694 0.723,2.351 1.582,-2.311 2.492,-7.537 3.075,-10.381 0.31,-1.503 -0.415,-2.36 -0.902,-2.388 z m 124.073,0.036 c -0.131,0.017 -0.241,0.081 -0.325,0.181 -0.086,0.102 8.188,8.193 5.209,13.022 -2.807,4.548 -15.184,5.202 -16.242,6.113 4.682,-0.875 14.924,-0.39 17.941,-6.583 2.123,-4.358 -4.623,-12.987 -6.583,-12.733 z m -59.83,6.113 c -0.563,-0.004 -1.08,0.095 -1.519,0.434 1.779,-0.115 6.14,1.812 9.296,0.326 -3.756,0.379 -6.089,-0.747 -7.777,-0.76 z m 77.264,0.036 c -4.078,0.104 -10.223,4.441 -9.26,5.534 3.605,-1.653 3.729,-3.668 10.852,-5.317 -0.473,-0.181 -1.008,-0.231 -1.592,-0.217 z m 1.158,1.049 c 1.48,2.771 -2.498,10.052 2.821,7.054 -3.991,0.743 0.11,-6.351 -2.821,-7.054 z m -33.097,4.052 c -6.467,-0.113 -15.613,3.424 -15.699,7.017 -0.053,2.225 7.367,3.263 4.377,5.499 -7.617,5.694 -17.992,3.558 -18.268,4.919 4.625,0.025 13.785,0.608 20.257,-5.209 2.445,-2.198 -5.298,-4.165 -4.884,-5.86 0.771,-3.144 11.262,-6.49 16.785,-6.077 -0.781,-0.175 -1.644,-0.274 -2.568,-0.289 z M 20.033,79.938 c -0.345,1.128 -0.557,2.235 -0.687,3.437 0.085,-0.841 0.291,-1.625 0.615,-2.677 0.088,0.335 0.207,0.748 0.398,1.085 -0.202,-0.521 -0.222,-1.445 -0.326,-1.845 z m 113.692,1.049 c -1.174,-0.009 -2.861,0.225 -4.738,0.289 4.758,-0.036 5.818,-0.554 3.255,4.16 -2.026,3.727 4.064,3.341 5.606,3.255 -1.635,-0.067 -5.208,-0.823 -3.689,-3.4 2.103,-3.566 1.522,-4.289 -0.434,-4.304 z M 95.236,81.53 c -3.519,0.114 -5.834,3.325 -8.066,3.907 2.252,1.352 5.379,-4.168 10.707,-3.437 -0.952,-0.376 -1.829,-0.497 -2.641,-0.47 z m 58.6,1.121 c -3.521,1.488 0.93,15.217 5.028,12.479 -4.669,-1.89 -4.55,-7.315 -5.028,-12.479 z M 95.923,82.76 c -0.085,0.007 -0.176,0.015 -0.253,0.036 2.146,2.932 6.439,8.378 4.159,13.564 -5.984,-0.118 -20.575,3.336 -23.512,5.606 -4.224,3.267 3.958,5.387 2.532,6.873 -2.671,2.784 -10.507,3.359 -15.337,1.592 2.773,2.358 13.87,1.871 16.278,-1.592 1.341,-1.93 -6.159,-3.695 -3.581,-6.077 2.866,-2.648 17.007,-5.942 24.778,-5.643 0.11,-0.357 0.624,-0.736 0.977,-1.628 1.557,-3.929 -3.155,-12.261 -5.788,-12.732 -0.087,-0.015 -0.167,-0.007 -0.253,0.001 z m 68.295,5.823 c -2.272,0.107 -4.846,5.357 -5.751,5.57 2.671,1.409 4.131,-5.23 6.691,-5.245 -0.305,-0.222 -0.615,-0.34 -0.94,-0.325 z m 0.362,0.977 c -0.555,1.639 3.09,2.679 1.229,9.441 -1.854,0.152 -4.403,-0.523 -6.655,2.17 -0.705,0.843 -3.16,10.716 0.76,14.505 -5.287,5.382 -14.99,6.195 -16.17,6.981 -0.734,1.493 11.699,-0.97 16.277,-5.86 1.314,-1.402 11.986,-10.688 13.059,-9.982 0.605,0.397 -1.854,6.82 -1.303,7.849 0.547,1.019 5.689,-4.254 6.729,-6.547 -1.824,2.65 -5.365,6.373 -5.57,5.498 -0.533,-2.274 2.444,-8.302 0.036,-7.56 -2.408,0.742 -9.993,6.559 -11.756,8.464 -1.784,-0.479 -2.469,-9.201 -0.76,-12.877 1.222,-2.629 6.149,-0.653 6.872,-2.857 1.245,-3.793 -0.33,-8.642 -2.748,-9.225 z M 27.015,95.022 c -1,-0.028 -1.88,0.343 -2.279,1.411 -0.539,1.442 1.979,4.869 0.724,6.258 -1.374,1.519 -3.176,1.425 -5.462,-1.339 0.626,1.389 3.417,3.621 5.933,1.483 1.701,-1.445 -1.455,-4.483 -0.76,-6.402 0.737,-2.034 3.672,-1.045 5.317,0.29 2.122,1.721 -1.124,3.354 -0.688,5.317 1.064,4.789 11.846,5.054 14.216,4.413 -1.456,5.018 -0.48,15.255 7.669,12.118 -6.797,2.309 -8.64,-6.77 -6.765,-12.732 -4.467,1.278 -13.997,0.139 -14.577,-3.581 -0.479,-3.075 3.545,-3.881 -0.181,-6.149 -0.995,-0.607 -2.147,-1.059 -3.147,-1.087 z m 85.801,2.315 c -0.518,0.063 -1.801,0.271 -2.785,0.325 -1.313,0.072 -6.971,0.236 -7.018,0.398 -0.101,0.349 5.211,-0.108 6.512,-0.145 1.299,-0.036 3.23,-0.411 3.508,-0.579 0.047,-0.026 -0.044,-0.02 -0.217,0.001 z m -16.061,0.615 c -0.527,0.02 -1.025,0.083 -1.519,0.145 1.908,0.068 3.099,-0.066 3.871,0.181 -0.129,2.295 -4.034,14.407 6.836,14.36 -8.161,-1.913 -5.862,-9.182 -5.535,-14.541 -0.498,-0.08 -2.071,-0.205 -3.653,-0.145 z m -77.192,2.749 c -0.667,2.583 -0.136,9.449 1.158,10.996 0.655,0.783 0.766,-1.551 2.025,0.181 1.326,1.822 2.352,6.754 1.375,9.224 1.748,-1.979 0.404,-6.359 -0.651,-8.934 -1.466,-3.577 -2.906,0.297 -3.255,-2.026 -0.364,-2.411 -1.168,-5.424 -0.652,-9.441 z m 41.924,2.496 c -0.611,-0.015 -1.276,0.012 -2.026,0.036 3.362,0.296 4.244,0.403 4.232,1.591 -0.017,1.773 -4.47,4.781 -2.243,6.475 2.006,1.525 2.578,0.95 7.705,1.592 -5.208,-0.967 -6.97,-1.156 -6.8,-3.002 0.172,-1.877 3.208,-3.826 2.604,-5.281 -0.437,-1.055 -1.64,-1.368 -3.472,-1.411 z m -5.425,0.036 c -3.522,0.057 -7.073,0.465 -9.767,1.7 -1.503,5.024 -2.381,11.628 2.387,13.202 2.509,0.829 4.811,-2.636 7.234,-2.134 4.068,0.842 6.063,7.003 3.617,10.924 3.377,-2.441 1.655,-11.491 -4.196,-11.575 -3.014,-0.044 -5.369,3.001 -6.728,2.278 -3.463,-1.838 -3.004,-8.178 -1.881,-12.443 3.465,-1.283 5.287,-1.725 12.805,-1.916 -1.131,-0.038 -2.298,-0.055 -3.471,-0.036 z m 126.061,2.857 c -2.658,1.332 -2.789,6.508 -1.482,9.369 -0.83,-2.8 -0.841,-7.412 1.482,-9.369 z m -66.955,0.797 c -3.886,-0.031 -6.17,4.006 -10.092,4.557 3.531,1.841 6.861,-4.463 11.864,-4.268 -0.629,-0.194 -1.217,-0.285 -1.772,-0.289 z m -13.564,0.253 c -0.338,0.132 -0.17,1.415 0.65,2.423 0.82,1.009 2.309,1.722 2.75,1.557 0.199,-0.076 -1.025,-0.885 -1.881,-1.882 -0.857,-0.998 -1.363,-2.16 -1.519,-2.098 z m 14.324,0.796 c -0.166,0.042 -0.281,0.182 -0.326,0.397 -0.123,0.591 2.452,2.011 2.388,4.739 -0.038,1.592 1.13,5.492 -3.4,4.955 -4.806,-0.57 -11.013,-0.732 -11.394,7.09 -0.132,2.717 -0.883,4.705 1.266,7.777 -5.671,0.813 -21.961,3.408 -23.006,5.896 -1.188,2.828 4.922,3.662 4.232,4.666 -0.864,1.256 -8.027,2.076 -14.36,1.157 1.188,2.255 13.093,2.138 16.061,-0.94 1.163,-1.206 -5.281,-2.604 -4.377,-4.594 1.151,-2.532 20.809,-5.471 23.947,-5.391 -3.224,-4.266 -2.211,-6.826 -1.99,-8.572 0.617,-4.853 1.855,-7.008 7.524,-6.438 4.59,0.461 7.292,0.927 7.343,-5.462 0.021,-2.604 -2.584,-5.219 -3.726,-5.281 -0.067,-0.003 -0.128,-0.014 -0.182,0.001 z m -92.422,7.523 c 0.608,3.669 0.538,5.478 -0.904,2.677 -0.54,-1.048 -1.595,-2.538 -1.591,-0.94 1.025,-1.043 2.398,4.129 2.821,2.713 0.607,-2.035 0.079,-4.45 -0.326,-4.45 z m 119.189,0.036 c -5.338,0.009 -15.549,3.948 -17.291,7.487 -0.981,1.995 6.197,3.426 4.269,4.848 -8.375,6.177 -20.785,4.509 -20.727,5.752 3.063,0.421 16.913,-0.418 22.644,-6.15 1.594,-1.594 -5.27,-3.268 -3.942,-5.063 2.397,-3.242 12.354,-6.626 17.797,-6.222 -0.547,-0.47 -1.518,-0.654 -2.75,-0.652 z m 19.207,0.253 c -1.953,1.801 2.195,6.906 -0.47,10.201 -2.351,2.906 -6.671,0.279 -9.188,4.485 -1.762,2.946 -2.819,8.71 2.135,7.994 -2.657,-1.747 -2.289,-4.808 -0.615,-7.56 2.476,-4.071 6.366,-0.926 8.791,-4.559 1.779,-2.666 1.797,-7.579 -0.653,-10.561 z m -18.302,0.797 c -0.155,0.02 -0.284,0.14 -0.361,0.397 -1.08,3.582 -2.787,4.147 -2.75,5.933 0.023,1.101 0.68,1.329 3.039,0.939 -0.925,-0.206 -1.271,-0.963 -1.23,-1.482 0.119,-1.53 1.572,-2.988 2.279,-4.666 0.158,-0.377 -0.512,-1.184 -0.977,-1.121 z m -87.647,0.18 c 2.805,4.074 3.157,7.518 1.266,9.441 -0.983,1 -6.141,-3.681 -8.464,-1.664 -3.471,3.013 -1.725,10.677 1.158,13.457 -4.097,0.387 -10.629,-0.928 -13.312,-4.016 -1.129,-1.299 1.374,-2.483 0.289,-4.123 -1.419,-2.148 -9.216,-5.566 -9.694,-3.763 -0.079,0.3 0.027,0.72 0.181,1.157 -0.065,-0.25 -0.052,-0.43 0.072,-0.542 1.658,-1.507 6.931,2.118 9.116,3.472 1.161,0.721 -1.319,3.177 -0.362,4.088 3.172,3.021 9.089,5.275 15.048,4.016 -2.987,-3.467 -4.728,-9.576 -2.098,-12.66 1.61,-1.889 6.463,2.313 8.935,1.229 2.901,-1.272 1.237,-9.485 -2.135,-10.092 z m -2.858,1.194 c -0.305,0.159 -0.617,0.308 -0.904,0.435 0.294,-0.122 0.592,-0.272 0.904,-0.435 z m -31.325,0.036 c -0.593,4.955 3.075,12.867 7.379,14.65 3.028,1.254 -0.03,-2.182 -1.302,-4.377 1.041,1.966 2.885,4.242 2.134,4.087 -4.202,-0.866 -7.975,-8.04 -8.211,-14.36 z m 89.202,1.375 c -0.452,0.014 -0.767,0.068 -0.759,0.145 0.029,0.336 4.871,0.788 4.846,0.361 -0.018,-0.34 -2.729,-0.549 -4.087,-0.506 z m -60.771,6.439 c -1.825,0.136 -1.717,9.529 1.52,11.937 1.361,1.013 15.939,-1.656 21.92,1.809 -3.947,-4.332 -18.064,-1.998 -21.342,-2.496 -3.279,-0.498 -3.63,-11.41 -1.917,-11.213 -0.063,-0.017 -0.122,-0.042 -0.181,-0.037 z m -21.197,1.157 c -2.627,-0.055 2.533,5.047 2.098,6.619 1.501,-2.164 -3.343,-5.388 -2.098,-6.619 z m 5.824,2.894 c 1.101,1.186 -2.233,3.104 1.664,5.787 -2.98,-3.349 1.647,-4.582 -1.664,-5.787 z m 127.328,2.206 c -2.898,-0.06 -5.493,3.935 -7.633,6.149 2.643,-1.944 5.068,-4.949 8.211,-6.077 -0.195,-0.041 -0.384,-0.068 -0.578,-0.072 z m -0.651,0.977 c -0.052,-10e-4 -0.101,0.03 -0.145,0.072 -1.037,0.984 1.308,5.255 -1.05,8.935 -3.049,3.537 -10.773,6.838 -15.408,8.718 3.283,-0.135 11.931,-4.466 14.396,-6.945 -1.371,3.949 -3.355,7.11 -0.651,6.765 -2.24,-0.689 0.987,-5.46 1.881,-7.922 3.578,-2.366 5.593,-5.082 9.007,-8.139 -2.115,1.555 -5.667,5.437 -7.777,6.475 1.937,-3.355 0.514,-7.948 -0.253,-7.959 z m 9.694,0.724 c -5.203,9.59 -1.674,5.184 2.242,0.217 -3.619,3.304 -7,9.614 -2.242,-0.217 z m -62.904,0.687 c -0.434,0.144 -0.914,0.908 -0.723,1.157 1.556,2.024 3.619,5.347 3.545,6.258 -0.508,6.144 -4.496,3.909 -8.646,3.473 -2.823,-0.298 -6.749,1.177 -6.981,3.617 -0.347,3.644 2.846,6.521 4.993,5.896 -2.506,-1.635 -3.604,-3.588 -3.184,-5.932 0.602,-3.354 6.915,-2.885 9.477,-2.424 3.932,0.707 5.904,-2.438 6.078,-4.92 0.109,-1.588 -1.962,-4.289 -4.16,-7.018 -0.112,-0.136 -0.255,-0.156 -0.399,-0.107 z m -55.164,4.449 c -0.453,0.525 4.703,5.031 4.087,9.26 2.271,-2.822 -3.663,-9.752 -4.087,-9.26 z m 16.423,0.035 c 1.454,1.217 1.063,1.816 0.145,2.641 -2.271,2.042 -2.367,2.922 1.375,4.052 -2.358,-1.962 -1.042,-2.407 -0.072,-3.292 1.681,-1.535 1.541,-3.227 -1.448,-3.401 z m -17.869,0.254 c -0.355,-0.279 4.483,6.063 3.219,8.754 -0.778,1.656 -7.213,-3.842 -8.79,-1.736 -0.745,0.994 1.849,5.377 4.269,7.379 -2.61,-2.796 -4.818,-6.166 -3.581,-7.018 1.911,-1.314 6.954,4.153 8.971,2.135 2.303,-2.308 -2.556,-8.309 -4.088,-9.514 z m 112.823,5.39 c -1.07,-0.079 -4.023,3.729 -5.354,5.426 1.518,-1.642 4.42,-4.784 4.774,-4.702 0.314,0.072 -0.198,1.578 -0.615,2.17 -2.298,3.268 -5.862,4.56 -7.886,7.234 -1.46,1.799 -3.167,3.449 -3.291,5.68 0.275,-1.593 2.311,-3.951 3.617,-5.391 2.738,-3.198 5.125,-4.396 7.523,-6.98 0.988,-1.064 1.797,-3.065 1.41,-3.364 -0.051,-0.043 -0.108,-0.068 -0.178,-0.073 z m -18.123,0.94 c -5.582,0.074 -17.35,5.543 -16.784,7.451 0.293,0.988 3.692,1.467 2.858,2.315 -3.629,3.685 -15.54,4.438 -16.676,5.426 6.586,-0.513 15.313,-2.522 18.882,-6.04 0.725,-0.715 -3.854,-1.549 -3.328,-2.389 0.782,-1.249 10.118,-6.025 16.061,-6.728 -0.312,-0.044 -0.641,-0.039 -1.013,-0.035 z m -0.109,0.796 c -0.651,-0.278 -7.254,7.765 -1.809,4.919 -2.264,-0.292 3.222,-4.314 1.809,-4.919 z m -98.86,1.447 c 1.246,4.068 3.924,7.461 7.452,5.933 2.053,-0.89 9.122,3.319 10.454,8.067 -0.209,-4.041 -6.652,-9.566 -10.526,-8.719 -3.944,0.863 -3.744,-0.131 -7.38,-5.281 z m -8.356,3.003 c -0.689,0.031 2.534,2.394 4.16,4.413 0.262,0.326 -1.577,-1.027 -2.062,-1.086 0.45,0.451 3.232,2.133 2.93,1.557 -0.67,-1.279 -4.85,-4.27 -4.196,-4.197 1.28,0.145 11.373,5.127 8.862,6.006 3.441,-0.928 -6.569,-5.611 -9.152,-6.548 -0.272,-0.1 -0.443,-0.15 -0.542,-0.145 z m 71.08,0.434 c -2.931,0.234 -5.75,2.197 -8.573,3.146 2.575,0.781 5.961,-3.178 11.539,-2.677 -1.001,-0.402 -1.989,-0.547 -2.966,-0.469 z m 1.157,1.374 c -0.211,0.03 -0.383,0.146 -0.542,0.325 1.509,1.466 3.056,2.482 3.327,4.956 0.203,1.119 -0.311,1.818 -0.832,2.713 0.606,0.315 0.895,0.06 1.52,0.072 0.799,-1.042 1.174,-2.312 0.941,-3.327 -0.427,-1.853 -2.936,-4.955 -4.414,-4.739 z m -53.066,2.423 c 7.591,8.336 7.986,10.945 -9.26,3.221 12.22,8.281 22.101,6.961 9.26,-3.221 z m -10.562,0.869 c -0.061,-0.017 -0.112,0.005 -0.181,0.035 -0.414,0.186 -0.493,1.408 0.542,1.882 0.264,-0.665 0.061,-1.806 -0.361,-1.917 z m 63.52,4.883 c -6.556,0.305 -17.475,2.742 -20.692,3.871 -2.16,0.758 4.685,2.944 3.473,3.183 -4.748,0.934 -6.833,0.838 -12.118,0.29 2.742,0.898 10.764,1.303 13.926,-0.218 1.553,-0.746 -5.078,-2.295 -3.726,-2.785 5.813,-2.108 12.807,-2.704 21.631,-4.305 -0.722,-0.053 -1.558,-0.079 -2.494,-0.036 z m 39.356,0.832 c -2.875,0.455 -14.803,9.708 -6.909,3.146 -9.749,7.421 5.522,-3.041 7.38,-3.11 -0.104,-0.056 -0.28,-0.066 -0.471,-0.036 z m -36.86,0.217 c -2.167,0.096 -2.372,2.396 -2.351,4.016 0.023,1.769 1.953,3.032 4.594,2.424 -1.826,-0.752 -2.701,-1.018 -2.822,-2.857 -0.111,-1.691 0.154,-2.293 1.014,-3.582 -0.164,-0.015 -0.291,-0.007 -0.435,-0.001 z m -45.868,1.193 c -1.44,0.016 -2.345,0.074 -2.315,0.182 0.159,0.575 12.522,-0.124 18.737,2.352 -3,-2.053 -12.102,-2.577 -16.422,-2.534 z m -4.159,0.942 c -0.054,-0.003 -0.124,0.009 -0.181,0.036 -1.072,0.507 2.015,4.288 4.883,5.534 -3.329,-2.307 -3.895,-5.533 -4.702,-5.57 z m 1.555,0.325 c 1.729,3.825 3.574,5.966 8.03,5.716 2.966,-0.167 6.72,0.313 8.935,2.568 -2.011,-2.473 -5.006,-3.234 -9.803,-3.184 -3.308,0.034 -5.922,-2.904 -7.162,-5.1 z m 60.951,0 c -2.748,-0.008 -8.09,3.376 -9.73,3.509 2.244,0.896 5.776,-2.793 10.707,-3.291 -0.268,-0.16 -0.584,-0.217 -0.977,-0.218 z m 16.35,0.253 c -3.024,0.552 -10.709,3.16 -13.13,5.57 -0.347,0.346 1.88,0.241 1.556,0.507 -2.848,2.333 -12.363,3.325 -14.434,4.739 -0.922,0.63 2.141,0.686 1.339,1.121 -2.173,1.178 -8.235,0.714 -10.128,2.352 1.507,-0.824 10.193,-1.687 11.141,-2.46 0.644,-0.525 -2.396,-0.97 -1.447,-1.267 3.614,-1.129 11.721,-2.121 14.795,-4.811 0.607,-0.531 -2.896,-0.024 -1.193,-0.94 3.539,-1.906 8.57,-3.902 11.068,-4.485 0.662,-0.154 -1.973,1.542 -2.641,2.387 0.826,-0.497 3.864,-2.857 3.074,-2.713 z m -62.253,0.47 c 1.932,1.374 -3.706,2.578 0.796,3.653 -1.691,-1.963 3.926,-2.974 -0.796,-3.653 z m 45.867,0.434 c -0.388,-0.024 -0.845,0.082 -1.339,0.326 2.356,0.871 0.633,3.714 -1.771,3.798 -2.418,0.085 -4.362,-0.107 -6.547,0.977 -2.016,1 -3.295,2.48 -2.605,4.595 -4.057,0.545 -11.893,1.662 -14.65,2.278 -0.413,0.093 0.21,0.278 0.868,0.435 -0.262,-0.176 0.063,-0.424 0.361,-0.507 2.619,-0.732 10.723,-1.436 15.338,-2.026 -0.398,-0.969 -0.9,-2.082 0.397,-3.473 1.374,-1.471 3.589,-1.691 6.692,-1.844 1.761,-0.088 3.524,-0.971 4.484,-2.533 0.539,-0.872 -0.063,-1.951 -1.228,-2.026 z m -48.291,5.209 c 1.049,0.808 2.783,2.459 1.845,2.496 -2.179,0.089 -8.884,-2.021 -7.922,-0.723 3.695,4.986 15.374,3.802 21.595,5.1 -5.244,-1.445 -16.95,-0.549 -20.257,-4.594 -1.645,-2.013 7.254,1.846 8.03,0.543 0.459,-0.771 -2.151,-2.223 -3.291,-2.822 z"/>
      <path style="fill:#ffffff;stroke:#ffffff;stroke-width:0.1406" id="path2291" d="m 133.182,22.894 c -1.272,0.456 -1.797,0.437 -2.387,1.121 0.363,0.473 1.457,0.919 2.025,1.23 4.404,2.413 3.571,2.16 1.699,3.871 3.49,-1.713 0.879,-2.495 -1.591,-3.871 -1.138,-0.633 -1.087,-0.624 -1.917,-1.23 0.573,-0.453 1.194,-0.757 2.171,-1.121 z m -14.758,4.015 c -0.115,0 -0.061,0.064 -0.362,0.108 1.458,1.308 6.062,7.603 8.356,6.222 -2.635,0.169 -5.522,-4.1 -7.994,-6.33 z m 26.695,1.591 c 0.557,0.733 0.435,0.938 0.181,1.158 1.325,0.176 0.186,-0.834 -0.181,-1.158 z m -14.867,3.365 c 2.109,0.59 3.654,1.675 5.027,3.328 1.027,1.236 1.813,2.688 1.086,3.834 2.074,-1.134 0.496,-2.632 -0.977,-4.269 -1.529,-1.697 -3.244,-2.547 -5.136,-2.893 z m -0.796,0.289 c -0.694,0.651 -1.629,1.692 -1.374,1.917 0.658,0.582 1.398,-0.7 1.374,-1.917 z m 1.7,6.475 c -0.543,-0.005 -0.015,2.411 0.94,4.232 1.369,2.612 3.399,5.143 5.063,6.149 -0.053,-0.261 0.07,-0.504 0.254,-0.688 -3.764,-3.39 -3.363,-4.187 -4.848,-6.33 -1.477,-2.133 -0.594,-2.975 -1.302,-3.328 -0.044,-0.022 -0.071,-0.035 -0.107,-0.035 z m 29.228,1.954 c 0.382,1.09 -0.633,1.029 -1.374,1.085 4.242,4.114 7,7.374 7.307,9.152 -0.271,-2.569 -4.348,-6.484 -6.656,-8.898 1.2,-0.129 0.96,-1.138 0.723,-1.339 z m -3.038,0.759 c -2.998,1.981 -3.861,2.753 -2.352,4.124 -1.043,-1.251 0.371,-2.638 2.352,-4.124 z m -8.14,4.666 c 2.96,1.174 0.864,5.689 3.22,5.245 -1.641,-0.931 0.666,-4.253 -3.22,-5.245 z m -4.268,0.217 c -5.57,1.749 -8.217,5.341 -11.177,6.294 1.392,-0.368 3.13,-1.358 4.558,-2.496 1.939,1.074 3.581,2.744 4.63,4.811 1.187,2.336 3.145,5.555 0.615,7.162 3.304,-1.606 2.316,-4.049 0.435,-7.198 -1.15,-1.923 -3.01,-3.748 -4.667,-5.245 1.84,-1.231 3.334,-2.095 5.606,-3.328 z m 11.033,0.072 c 3.197,2.185 3.244,3.895 0.325,5.824 4.29,-2.469 2.329,-4.013 -0.325,-5.824 z m -35.486,1.158 c 3.085,2.158 -2.167,5.484 1.7,5.715 -2.175,-1.302 3.133,-4.735 -1.7,-5.715 z m -28.757,0.181 c -2.266,6.903 -0.67,10.396 1.664,13.167 1.98,2.351 5.955,8.135 2.641,12.733 -2.404,3.335 -7.414,-1.199 -10.924,1.121 -3.291,2.175 -2.635,6.862 -0.072,9.984 4.304,5.242 9.251,-4.542 12.335,-1.7 5.533,5.098 6.137,11.1 4.016,14.397 -0.871,1.351 -1.53,6.268 -1.05,9.223 0.48,2.955 2.121,3.937 4.957,5.752 3.37,2.156 7.047,-2.958 10.598,-4.377 3.051,-1.22 7.872,9.003 1.303,11.395 7.211,0.921 5.092,-13.289 -1.266,-12.046 -4.58,0.896 -7.355,6.218 -11.431,4.305 -4.907,-2.304 -4.136,-9.359 -3.075,-13.564 10.535,-1.089 18.941,0.087 23.982,-6.475 1.657,-2.157 -7.024,-4.591 -5.1,-6.113 2,-1.582 7.684,-3.771 7.74,-3.798 -3.768,0.67 -5.399,0.794 -8.682,3.653 -2.309,2.013 6.158,4.218 4.521,6.149 -4.691,5.542 -13.589,6.136 -21.305,5.643 1.309,-5.273 0.909,-9.112 -3.872,-13.89 -3.856,-3.856 -9.199,4.668 -12.009,2.207 -3.522,-3.085 -3.545,-7.804 -2.026,-9.912 2.499,-3.465 8.677,1.979 12.587,-1.7 3.249,-3.056 -0.834,-8.985 -2.604,-12.841 2.186,-0.276 4.861,-0.561 7.488,-0.94 -3.24,0.317 -6.458,0.266 -8.393,0.326 -2.282,-4.409 -3.309,-7.436 -2.023,-12.699 z m 21.884,0.507 c -2.505,0.79 -2.426,0.458 -5.136,1.917 -3.639,1.958 4.908,3.407 3.545,5.788 -0.969,1.689 -2.905,2.714 -5.209,3.364 2.587,-0.543 4.77,-1.247 5.823,-2.134 3.643,-3.068 -7.308,-5.522 -3.509,-7.126 1.499,-0.634 2.288,-1.04 4.486,-1.809 z m -6.799,11.068 c -1.43,0.3 -2.98,0.566 -4.559,0.795 1.571,-0.157 3.127,-0.391 4.559,-0.795 z m 56.97,-8.428 c -0.469,-0.003 1.068,3.294 1.918,4.376 0.633,0.807 2.408,3.139 2.531,2.822 0.074,-0.188 -1.608,-2.112 -2.423,-3.183 -0.914,-1.204 -1.782,-4.013 -2.026,-4.015 z m 5.644,5.752 c 0.091,2.168 -0.06,2.038 -0.435,2.64 1.016,0.492 0.868,-1.551 0.435,-2.64 z m 1.628,0.759 c 0.938,1.259 1.781,2.674 2.459,3.943 -0.627,-1.397 -1.38,-2.602 -2.459,-3.943 z m 2.459,3.979 c 0.479,1.068 0.922,2.238 1.411,3.653 0.249,-0.105 -0.374,-1.711 -1.411,-3.653 z m -36.824,0.796 c -1.397,0.333 -1.006,6.767 3.87,9.152 -5.837,-4.854 -2.131,-8.662 -3.545,-9.116 -0.107,-0.035 -0.232,-0.058 -0.325,-0.036 z m 38.995,4.305 c -0.018,0.02 -0.055,0.016 -0.072,0.036 0.531,1.679 1.071,3.317 1.483,4.774 0.421,1.493 1.281,5.247 2.278,4.594 -1.021,0.301 -1.772,-3.082 -2.206,-4.775 -0.354,-1.374 -0.854,-2.736 -1.483,-4.629 z m -0.905,0.506 c -0.788,0.669 -1.735,1.876 -1.881,2.062 -1.454,1.858 -1.974,3.371 -1.229,4.811 -0.496,-1.074 0.432,-3.164 1.266,-4.304 0.849,-1.162 1.242,-1.683 1.844,-2.569 z m -25.863,0.94 c -0.195,-0.036 -0.315,0.034 -0.325,0.253 -0.04,0.797 6.217,6.036 5.751,12.009 0.745,-0.638 0.325,-0.438 0.796,-0.832 0.369,-5.152 -4.854,-11.181 -6.222,-11.43 z m -2.821,0.905 c -0.795,0.027 -3.648,3.054 -3.184,3.255 0.457,0.198 3.88,-2.773 3.328,-3.219 -0.033,-0.027 -0.092,-0.038 -0.144,-0.036 z m 25.681,5.245 c 0.17,0.278 0.342,0.558 0.615,0.832 1.904,1.907 1.703,2.064 1.339,3.4 -0.286,1.05 -1.037,2.163 -2.099,3.256 3.277,-3.147 3.215,-5.024 0.326,-7.307 -0.066,-0.053 -0.13,-0.116 -0.181,-0.181 z m -4.955,1.194 c -0.074,-0.012 -0.152,0.012 -0.217,0.036 -0.385,0.141 0.985,0.375 0.76,3.038 -0.111,1.292 -0.541,3.099 -0.109,3.762 0.298,-0.127 0.037,-0.206 0.362,-0.145 -0.55,-1.445 0.075,-2.545 0.181,-3.69 0.176,-1.927 -0.459,-2.918 -0.977,-3.001 z m -3.291,0.47 c -0.799,0.113 -4.133,1.89 -9.333,5.715 -0.227,8.477 2.056,13.037 3.798,12.48 0.506,-0.162 -2.521,-1.644 -2.93,-11.901 6.926,-5.503 8.711,-5.852 8.645,-6.258 -0.008,-0.051 -0.066,-0.053 -0.18,-0.036 z m 16.314,0.651 c -0.151,0.056 -0.424,0.526 -0.253,0.796 0.439,0.696 0.201,-0.637 0.253,-0.796 z m -45.65,3.834 c -1.449,0.098 -3.109,0.574 -4.377,0.904 2.496,-0.299 5.867,-0.7 5.932,0.615 0.091,1.848 -2.537,4.684 -1.375,5.715 3.014,2.674 13.547,0.803 18.015,-3.002 -0.015,-0.223 0.354,-0.997 0.145,-1.049 -2.358,2.46 -12.862,6.835 -17.11,4.305 -1.58,-0.941 2.561,-4.18 1.918,-6.041 -0.431,-1.243 -1.7,-1.545 -3.148,-1.447 z m 47.061,2.749 c -0.027,0.051 -0.023,0.157 -0.037,0.29 0.014,-0.126 0.01,-0.217 0.037,-0.29 z m 0.072,3.581 c 0.064,0.87 0.122,1.661 0.145,2.026 0.02,0.319 0.055,0.69 0.107,1.121 -0.049,-0.42 -0.059,-0.812 -0.072,-1.121 -0.02,-0.479 -0.11,-1.23 -0.18,-2.026 z m -15.338,2.713 c -0.023,0 -0.027,0.012 -0.036,0.036 -0.159,0.476 1.804,3.125 1.917,5.751 0.23,5.319 -1.944,5.207 -1.52,5.607 0.43,0.403 2.557,-1.625 2.424,-5.571 -0.103,-3.089 -2.433,-5.826 -2.785,-5.823 z m -2.025,0.868 c -1.421,1.286 -2.646,3.01 -3.834,4.521 2.098,-0.934 3.017,-2.722 3.834,-4.521 z m 17.941,1.628 c 0.131,0.674 0.279,1.281 0.434,1.7 -0.146,-0.446 -0.302,-1.045 -0.434,-1.7 z m -0.506,4.413 c -0.961,2.304 -2.09,3.914 -2.967,6.438 -0.609,1.754 0.927,2.728 0.94,3.617 0.007,0.41 -0.103,0.889 -0.325,1.41 0.139,-0.285 0.283,-0.557 0.434,-0.868 0.318,-0.657 -0.526,-1.552 -0.904,-2.821 -0.424,-1.426 2.029,-5.212 2.822,-7.776 z m -17.435,4.268 c -0.797,0.023 -1.569,0.138 -1.556,0.29 0.03,0.336 3.207,0.427 3.183,0 -0.012,-0.227 -0.83,-0.313 -1.627,-0.29 z m -2.098,0.398 c -1.857,-0.105 -2.252,4.626 -2.243,6.764 0.011,2.512 0.411,6.347 1.556,6.873 0.119,-0.242 0.67,-0.579 0.795,-0.832 -1.639,-1.364 -1.257,-3.886 -1.446,-5.86 -0.226,-2.345 1.69,-6.925 1.338,-6.945 z m 12.696,5.498 c -0.602,0.141 -0.085,1.536 -0.651,3.327 -0.468,1.48 -1.346,3.498 -0.578,3.871 -0.063,-1.285 0.742,-2.847 1.121,-4.377 0.377,-1.531 0.695,-2.958 0.108,-2.821 z m 7.235,0.507 c -1.219,0.975 -1.919,4.845 -1.194,7.27 -0.502,-2.657 0.067,-6.147 1.194,-7.27 z m -10.056,0.867 c -3.218,2.176 -6.928,4.916 -9.803,7.633 3.864,5.921 2.039,11.766 -2.713,14.071 6.832,-2.306 6.807,-11.587 3.798,-14.505 2.142,-2.146 7.91,-6.198 8.718,-7.199 z m 6.293,1.664 c -0.33,0.476 -0.721,1 -1.301,1.7 0.495,-0.6 0.943,-1.178 1.301,-1.7 z m -132.681,6.258 c 1.721,2.963 3.452,3.566 5.354,3.111 2.168,-0.52 4.339,-2.639 5.788,-1.953 2.629,1.242 4.394,6.559 2.424,9.514 -2.042,3.061 -6.09,-1.74 -9.188,-0.832 -3.094,0.906 -0.872,11.086 1.809,12.985 -6.577,1.474 -12.549,-1.36 -15.626,-4.015 1.221,3.735 10.861,6.795 15.808,4.521 2.955,2.79 6.288,8.225 4.051,9.947 -2.149,1.655 -7.527,-3.034 -8.862,-1.772 -0.784,0.74 2.86,6.826 5.498,7.597 1.803,0.525 3.561,-1.244 6.077,0.904 -1.98,-2.47 -3.133,-1.398 -5.535,-1.375 -3.275,0.032 -6.47,-6.299 -5.751,-6.981 1.221,-1.16 6.617,4.569 9.296,1.845 2.2,-2.236 -1.958,-7.329 -3.87,-10.346 7.29,-0.254 17.543,-1.541 16.965,2.604 0.827,-0.784 0.861,-1.413 -0.398,-2.567 4.802,0.22 2.888,3.192 0.977,4.449 -1.298,0.853 1.091,2.524 2.134,2.893 4,1.415 12.4,1.156 16.676,-1.844 1.203,-0.845 -5.987,-4.095 -4.992,-4.703 5.611,-3.427 16.154,-3.93 22.682,-5.244 -5.893,0.543 -17.249,1.604 -23.26,4.847 -1.366,0.737 5.72,3.585 4.449,4.774 -1.831,1.715 -6.845,2.6 -10.997,2.46 -4.151,-0.14 -7.613,-1.548 -5.86,-2.785 9.126,-6.457 -8.503,-5.841 -18.737,-5.317 -3.519,-1.953 -4.861,-11.688 -2.532,-12.407 2.87,-0.886 7.421,3.872 9.948,0.435 2.221,-3.021 0.394,-9.012 -3.654,-10.093 -1.802,-0.481 -3.779,1.536 -5.534,2.062 -2.366,0.708 -3.786,-1.083 -5.14,-2.714 z m 115.5,0.615 c -3.684,4.504 -9.988,6.537 -13.275,7.198 7.375,-0.979 11.1,-4.528 13.529,-6.583 0.08,-0.847 -0.101,-0.474 -0.254,-0.615 z m -16.242,0.29 c 1.823,0.861 -2.681,5.764 -1.953,5.86 0.676,0.09 5.081,-5.007 1.953,-5.86 z m -4.377,0.795 c -4.214,0.86 -8.532,2.083 -11.503,4.558 -3.132,2.609 5.804,3.572 3.292,5.86 -6.04,5.503 -14.979,5.803 -23.042,6.728 2.684,3.412 4.9,5.646 3.653,9.405 -1.977,5.962 -10.161,0.503 -14.18,3.87 -2.377,1.992 -0.46,5.912 2.569,6.729 -1.796,-1.412 -4.53,-4.395 -2.424,-6.222 3.738,-3.243 12.921,1.53 15.265,-3.835 1.051,-2.402 -2.26,-7.564 -3.473,-9.44 8.111,-0.585 17.082,-2.45 22.971,-7.632 1.537,-1.354 -6.543,-3.356 -4.232,-5.137 3.633,-2.8 9.452,-4.449 11.104,-4.884 z m -31.723,2.244 c -0.467,-0.049 -0.947,0.408 -1.41,1.157 0.419,-0.47 0.875,-0.866 1.41,-1.157 z m -1.483,1.265 c -2.853,3.328 -2.874,10.278 0.904,12.949 -3.542,-3.557 -2.524,-10.187 -0.904,-12.949 z m 48.725,8.61 c -2.701,0.973 -4.306,6.921 -1.809,8.5 0.409,-1.473 -1.373,-4.4 1.809,-8.5 z m 7.017,3.218 c -0.061,0.004 -0.126,0.043 -0.182,0.109 -0.736,0.878 1.573,3.87 -0.543,8.029 2.892,-1.624 1.626,-8.194 0.725,-8.138 z m 9.188,0.832 c -0.192,-0.105 -1.889,3.646 -2.895,5.281 1.218,-1.606 3.031,-5.204 2.895,-5.281 z m -11.395,0.145 c -1.895,1.314 -3.75,3.469 -5.715,4.848 3.018,-1.44 4.26,-3.449 5.715,-4.848 z m 9.297,1.122 c -2.971,2.502 -5.945,5.903 -9.225,8.03 -0.799,2.123 -3.618,6.57 -2.062,7.451 -0.585,-1.133 1.096,-5.175 2.351,-7.307 2.809,-2.417 6.944,-5.998 8.936,-8.174 z m -10.888,9.585 c -3.98,3.248 -7.185,4.667 -13.492,7.055 4.602,-1.545 8.398,-2.685 13.312,-6.62 0.08,-0.224 0.045,-0.15 0.18,-0.435 z m 6.041,0.072 c -0.183,-0.029 0.984,1.712 -4.051,6.041 3.688,-2.459 5.289,-5.837 4.051,-6.041 z m -17.761,1.485 c -0.116,0.021 -0.236,0.045 -0.397,0.107 1.58,-0.152 -1.996,3.332 -2.641,4.812 1.571,-1.328 4.775,-5.259 3.038,-4.919 z m 16.351,0 c -0.697,0.279 -4.293,4.12 -4.27,4.195 0.038,0.113 4.613,-3.977 4.342,-4.195 -0.02,-0.016 -0.027,-0.02 -0.072,0 z m -18.196,0.614 c -3.457,0.964 -11.111,3.063 -13.492,5.823 -0.613,0.711 3.996,1.521 3.111,2.389 -4.754,4.648 -15.684,6.178 -20.148,6.293 -1.369,2.516 -2.679,6.193 0.939,6.837 -2.533,-1.372 -1.049,-4.282 -0.434,-6.222 3.096,-0.615 16.154,-1.881 20.619,-7.126 1.042,-1.226 -4.129,-1.079 -3.582,-1.953 1.353,-2.16 8.538,-4.503 12.987,-6.041 z m -33.025,5.643 c 5.279,4.664 3.844,6.912 3.074,8.319 1.118,-0.554 1.13,-0.549 2.063,-1.085 0.611,-3.053 -2.592,-6.23 -5.137,-7.234 z m -2.098,0.145 c -2.999,0.218 -5.005,2.569 -9.116,3.074 4.704,0.149 6.47,-2.355 9.694,-3.074 -0.21,-0.006 -0.379,-0.016 -0.578,0 z m 47.567,0.939 c -0.51,0.011 -3.685,3.584 -5.317,6.476 2.266,-3.489 5.467,-6.13 5.39,-6.403 -0.01,-0.032 -0.039,-0.073 -0.073,-0.073 z m -45.614,8.538 c -6.67,0.604 -15.055,1.87 -19.86,3.437 -1.032,0.337 5.01,2.202 4.015,2.641 -3.145,1.384 -8.769,1.764 -13.094,0.94 3.789,0.792 11.24,1.168 13.927,-0.723 0.869,-0.613 -5.421,-2.525 -4.341,-2.822 4.322,-1.189 13.115,-2.53 19.353,-3.473 z m 31.47,2.423 c -0.095,-0.105 -3.718,2.782 -3.617,3.002 0.098,0.215 3.845,-2.749 3.617,-3.002 z m -16.748,1.013 c -0.23,0.003 -0.479,0.005 -0.759,0.036 2.053,0.665 2.316,2.209 -0.941,4.341 -1.32,0.864 -6.094,0.305 -8.465,1.881 -1.682,1.12 -1.49,3.599 -0.723,3.292 0.529,-0.211 -0.207,-1.825 1.157,-2.93 2.8,-2.268 6.361,-0.761 9.224,-2.424 1.961,-1.138 3.967,-4.232 0.507,-4.196 z m -44.818,0.036 c 1.836,0.742 -1.838,2.285 -0.651,3.039 0.037,-0.575 4.202,-1.825 0.651,-3.039 z m 42.612,0 c -0.338,-0.059 -2.068,0.66 -3.799,1.52 -1.033,0.514 -2.437,1.203 -3.256,1.266 -0.905,0.069 -1.3,0.076 -1.338,0.182 0.573,0.375 3.711,-0.624 5.715,-1.592 1.918,-0.926 2.712,-1.175 2.75,-1.303 0.012,-0.042 -0.024,-0.064 -0.072,-0.073 z m 16.06,0.182 c -3.446,0.91 -7.303,2.787 -10.092,4.231 -0.726,0.376 1.936,0.022 1.591,0.579 -1.38,2.233 -15.04,4.637 -14.976,5.1 0.034,0.244 1.607,0.4 1.736,0.797 0.199,0.607 -1.869,0.924 -3.002,1.157 1.574,0.1 4.355,-1.105 3.509,-1.302 -0.877,-0.204 -1.298,-0.598 -1.411,-0.797 -0.244,-0.426 12.109,-2.379 15.048,-5.027 0.378,-0.34 -1.888,-0.443 -1.628,-0.688 0.954,-0.892 8.669,-3.781 9.225,-4.05 z m -59.287,2.892 c 0.008,0.022 -0.022,0.054 0,0.073 0.249,0.075 0.533,0.116 0.796,0.181 -0.28,-0.08 -0.603,-0.17 -0.796,-0.254 z m -2.207,2.787 c 1.153,0.698 2.844,2.378 1.917,2.677 -2.218,0.713 -6.177,-1.23 -7.922,-1.266 -0.901,-0.018 1.412,1.646 2.496,2.098 -0.614,-0.308 -2.603,-1.838 -2.098,-1.809 1.83,0.105 6.079,1.941 8.284,1.229 1.36,-0.438 -0.895,-2.063 -2.677,-2.929 z m 28.034,5.353 c -4.414,0.507 -8.378,1.019 -6.982,1.339 -0.168,-0.342 3.246,-0.869 6.982,-1.339 z m -24.669,0.181 c 4.012,0.468 8.46,0.982 8.537,0.904 -0.083,-0.125 -4.585,-0.508 -8.537,-0.904 z m 10.634,1.193 c -0.357,0.041 -0.633,0.35 -0.579,0.362 0.205,0.048 1.127,-0.185 0.94,-0.29 -0.13,-0.072 -0.242,-0.086 -0.361,-0.072 z m 10.238,0.072 c 0.857,0.447 -0.549,0.678 -2.786,0.797 2.189,-0.088 4.264,-0.265 2.786,-0.797 z"/>
    </g>
  </g>
</svg>